{"glyphs":{"0":{"ha":695,"x_min":34,"x_max":661,"o":"m 168 436 q 208 134 168 251 q 349 17 247 17 q 492 135 455 17 q 528 453 528 252 q 489 783 528 664 q 354 902 450 902 q 218 806 248 902 q 178 625 188 709 q 168 436 168 540 m 34 464 q 109 790 34 641 q 346 938 185 938 q 580 804 498 938 q 661 455 661 670 q 585 129 661 278 q 341 -20 508 -20 q 116 117 198 -20 q 34 464 34 253 z "},"1":{"ha":695,"x_min":155,"x_max":548,"o":"m 297 111 l 297 735 q 255 816 297 816 q 201 804 233 816 l 155 786 l 155 806 l 416 938 l 416 111 q 441 41 416 62 q 548 20 465 20 l 548 0 l 165 0 l 165 20 q 271 41 246 20 q 297 111 297 62 z "},"2":{"ha":695,"x_min":41,"x_max":660,"o":"m 583 0 l 41 0 l 41 20 l 278 267 q 416 451 362 361 q 469 639 469 542 q 417 786 469 733 q 271 839 364 839 q 151 791 197 839 q 72 659 105 744 l 44 665 q 78 777 54 729 q 160 882 102 826 q 342 938 217 938 q 517 869 444 938 q 589 696 589 799 q 544 524 589 601 q 401 337 504 448 l 177 106 l 474 106 q 575 118 550 106 q 641 197 600 130 l 660 190 l 583 0 z "},"3":{"ha":695,"x_min":61,"x_max":599,"o":"m 84 711 l 62 716 q 165 880 96 821 q 334 938 235 938 q 495 888 438 938 q 552 754 552 839 q 517 646 552 691 q 422 558 483 600 q 554 459 509 524 q 599 297 599 394 q 516 85 599 147 q 367 1 433 22 q 222 -20 301 -20 q 110 -4 158 -20 q 61 60 61 10 q 77 94 61 81 q 112 107 94 107 q 208 68 142 107 q 311 29 273 29 q 445 88 392 29 q 499 233 499 147 q 431 405 499 351 q 212 459 362 459 l 211 478 q 376 565 311 512 q 442 709 442 619 q 399 816 442 775 q 291 857 357 857 q 175 822 225 857 q 84 711 126 786 z "},"4":{"ha":695,"x_min":16,"x_max":655,"o":"m 16 232 l 16 321 l 450 938 l 514 938 l 514 321 l 655 321 l 655 232 l 514 232 l 514 0 l 407 0 l 407 232 l 16 232 m 72 321 l 407 321 l 407 794 l 72 321 z "},"5":{"ha":695,"x_min":40,"x_max":608,"o":"m 251 810 l 193 691 q 490 583 388 661 q 591 316 591 505 q 484 73 591 166 q 218 -20 377 -20 q 100 -5 152 -20 q 45 56 52 6 q 57 99 40 81 q 107 116 75 116 q 207 72 144 116 q 299 29 270 29 q 441 98 387 29 q 494 271 494 167 q 406 477 494 421 q 250 553 317 534 q 106 573 182 573 l 90 577 q 90 589 86 580 l 242 920 l 515 920 q 562 924 548 920 q 595 956 577 928 l 608 946 l 543 810 l 251 810 z "},"6":{"ha":695,"x_min":49,"x_max":650,"o":"m 619 947 l 623 922 l 554 907 q 510 893 530 901 q 436 861 489 886 q 308 750 383 836 q 211 532 232 664 q 293 577 250 559 q 391 594 337 594 q 580 514 509 594 q 650 297 650 434 q 571 74 650 168 q 364 -20 492 -20 q 139 87 228 -20 q 49 381 49 195 q 184 753 49 601 q 441 923 319 905 l 582 943 l 619 947 m 196 477 q 187 451 191 467 q 180 411 183 436 q 176 343 176 387 q 231 111 176 202 q 386 20 286 20 q 489 82 452 20 q 525 247 525 145 q 522 296 525 265 q 514 369 519 327 q 469 471 509 412 q 339 530 428 530 q 205 487 261 530 l 196 477 z "},"7":{"ha":695,"x_min":27,"x_max":624,"o":"m 624 900 l 327 -20 l 236 -20 l 514 816 l 230 816 q 127 796 155 816 q 51 704 99 775 l 27 715 l 110 920 l 624 920 l 624 900 z "},"8":{"ha":695,"x_min":74,"x_max":614,"o":"m 275 421 q 207 333 233 387 q 180 225 180 280 q 225 74 180 132 q 358 15 271 15 q 468 59 428 15 q 508 175 508 104 q 454 304 508 252 q 384 363 427 329 q 291 433 342 397 l 275 421 m 398 517 q 491 439 455 472 q 570 356 527 407 q 614 213 614 306 q 532 43 614 106 q 337 -20 450 -20 q 150 42 227 -20 q 74 211 74 104 q 108 328 74 288 q 178 399 142 368 q 255 462 213 431 l 135 577 q 82 733 82 640 q 155 875 82 811 q 348 938 228 938 q 514 887 442 938 q 585 749 585 836 q 537 617 585 670 q 398 517 489 564 m 358 542 q 453 628 417 574 q 489 746 489 681 q 447 860 489 817 q 334 902 404 902 q 229 865 273 902 q 185 764 185 827 q 222 656 185 716 q 358 542 261 603 z "},"9":{"ha":695,"x_min":41,"x_max":639,"o":"m 82 -30 l 77 -2 q 240 48 158 9 q 356 135 321 87 q 416 221 392 183 q 454 284 441 260 q 479 344 467 308 q 499 406 492 379 q 293 329 389 329 q 110 408 180 329 q 41 621 41 487 q 114 835 41 733 q 339 938 186 938 q 499 883 428 938 q 596 758 570 827 q 628 651 621 689 q 636 590 634 613 q 639 537 639 567 l 635 472 q 625 424 631 448 q 608 364 619 399 q 521 206 588 290 q 411 86 454 122 q 301 22 368 50 q 178 -17 235 -5 q 82 -30 121 -30 m 499 458 l 504 575 q 465 803 504 704 q 319 902 427 902 q 203 829 236 902 q 170 663 170 756 q 210 470 170 550 q 347 389 250 389 q 431 409 387 389 q 499 458 475 428 z "},"×":{"ha":0,"x_min":0,"x_max":0,"o":""}," ":{"ha":347,"x_min":0,"x_max":0,"o":""},"!":{"ha":463,"x_min":151,"x_max":311,"o":"m 302 760 l 241 245 l 222 245 l 162 760 l 158 827 q 175 905 158 872 q 232 938 192 938 q 291 907 275 938 q 306 827 306 871 l 302 760 m 151 57 q 173 115 151 90 q 232 140 195 140 q 287 115 266 140 q 311 57 311 92 q 289 3 311 22 q 231 -20 267 -16 q 175 2 203 -20 q 151 57 151 26 z "},"\"":{"ha":567,"x_min":94,"x_max":468,"o":"m 171 618 l 144 618 l 97 890 q 112 932 94 912 q 157 951 130 951 q 200 933 182 951 q 217 890 217 916 l 171 618 m 422 618 l 394 618 l 348 890 q 363 932 344 912 q 408 951 382 951 q 451 934 434 951 q 468 890 468 917 l 422 618 z "},"#":{"ha":695,"x_min":5,"x_max":688,"o":"m 653 377 l 653 299 l 502 299 l 458 0 l 378 0 l 421 299 l 235 299 l 188 0 l 109 0 l 155 299 l 5 299 l 5 377 l 167 377 l 196 563 l 44 563 l 44 639 l 207 639 l 250 920 l 331 920 l 287 639 l 472 639 l 514 920 l 594 920 l 553 639 l 688 639 l 688 563 l 542 563 l 514 377 l 653 377 m 462 563 l 276 563 l 247 377 l 433 377 l 462 563 z "},"$":{"ha":695,"x_min":61,"x_max":634,"o":"m 61 71 l 61 251 l 82 251 q 158 95 99 152 q 319 39 218 39 l 319 431 q 214 497 261 464 q 120 573 167 529 q 72 708 72 616 q 146 862 72 805 q 319 920 220 920 l 319 1010 l 367 1010 l 367 920 q 481 904 426 920 q 590 849 537 888 l 590 695 l 569 695 q 503 830 558 775 q 367 885 448 885 l 367 543 q 489 469 438 503 q 587 395 540 436 q 634 247 634 354 q 557 68 634 136 q 367 0 479 0 l 367 -121 l 319 -121 l 319 0 q 61 71 177 0 m 319 565 l 319 885 q 226 842 277 885 q 176 740 176 799 q 191 674 176 694 q 236 630 206 655 q 319 565 267 604 m 367 407 l 367 39 q 472 82 441 49 q 515 145 504 116 q 525 211 525 173 q 482 322 525 277 q 367 407 442 368 z "},"%":{"ha":1157,"x_min":85,"x_max":1072,"o":"m 800 -20 q 663 31 703 -20 q 624 171 624 82 q 718 391 624 286 q 925 495 811 495 q 1031 449 991 495 q 1072 343 1072 402 q 985 84 1072 188 q 800 -20 898 -20 m 941 452 q 862 424 888 452 q 817 371 835 397 q 786 317 800 344 q 764 261 776 293 q 740 192 751 230 q 729 120 729 153 q 815 22 729 22 q 970 130 905 22 q 1036 334 1036 238 q 1010 417 1036 382 q 941 452 985 452 m 881 938 l 346 -20 l 280 -20 l 764 849 q 591 812 680 812 q 553 814 565 812 q 524 824 542 816 l 528 790 l 533 749 q 441 507 533 614 q 250 401 349 401 q 85 590 85 401 q 177 813 85 706 q 384 920 268 920 q 445 911 424 920 q 494 879 467 902 q 544 849 520 856 l 606 844 q 724 868 671 844 q 814 938 776 892 l 881 938 m 276 449 q 363 477 322 449 q 450 580 403 505 q 497 770 497 655 l 492 806 l 487 834 q 439 854 462 839 q 407 873 417 869 q 391 880 397 877 q 284 804 342 880 q 208 673 226 729 q 190 552 190 618 q 209 476 190 503 q 276 449 228 449 z "},"&":{"ha":1081,"x_min":59,"x_max":1042,"o":"m 445 578 q 559 661 510 608 q 608 777 608 715 q 601 822 608 804 q 577 859 594 841 q 542 886 560 877 q 499 895 524 895 q 416 860 441 895 q 391 762 391 825 q 392 728 391 746 q 409 665 394 709 q 445 578 424 621 m 688 591 l 987 591 l 987 565 q 900 534 926 559 q 840 453 875 509 q 767 333 812 402 l 685 205 q 785 111 737 146 q 896 81 830 81 q 966 100 935 81 q 1021 155 996 121 l 1042 139 q 988 65 1016 99 q 929 6 961 31 q 834 -20 897 -20 q 712 14 769 -20 q 595 109 655 47 q 477 24 535 51 q 382 -11 418 -2 q 304 -20 346 -20 q 122 36 190 -20 q 59 200 59 94 q 142 388 59 304 q 329 524 225 472 q 291 641 301 596 q 281 718 281 685 q 294 804 281 766 q 354 890 308 841 q 493 938 401 938 q 627 896 573 938 q 681 772 681 854 q 623 631 681 686 q 467 533 565 577 q 514 449 485 497 q 556 379 542 402 q 590 328 570 357 q 650 247 610 299 q 736 374 696 303 q 776 497 776 445 q 758 548 776 532 q 688 565 740 565 l 688 591 m 349 477 q 228 372 272 427 q 186 238 186 324 q 240 112 186 170 q 366 54 294 54 q 463 79 407 54 q 514 108 490 94 q 562 145 537 122 q 467 274 507 211 q 396 394 428 337 q 349 477 363 452 z "},"'":{"ha":250,"x_min":61,"x_max":185,"o":"m 139 618 l 111 618 l 65 890 q 79 932 61 912 q 125 951 97 951 q 168 934 151 951 q 185 890 185 917 l 139 618 z "},"(":{"ha":734,"x_min":47,"x_max":669,"o":"m 434 142 l 416 205 q 471 257 444 223 q 542 371 498 291 q 587 529 587 450 q 557 575 587 575 q 524 570 540 575 l 490 563 q 409 608 442 570 q 381 718 381 648 q 505 906 381 906 q 628 812 588 906 q 669 600 669 719 q 592 332 669 475 q 434 142 515 188 m 282 739 l 302 676 q 190 537 250 641 q 131 352 131 432 q 160 306 131 306 l 192 309 l 226 318 q 306 272 276 309 q 328 226 321 251 q 336 162 336 201 q 211 -25 336 -25 q 88 67 129 -25 q 47 281 47 160 q 125 549 47 406 q 282 739 202 693 z "},")":{"ha":931,"x_min":40,"x_max":864,"o":"m 394 322 q 324 32 394 146 q 195 -140 255 -81 q 52 -246 135 -198 l 40 -223 q 223 4 170 -131 q 276 318 276 140 q 229 673 276 528 q 40 917 182 817 l 57 938 q 113 903 82 927 q 203 822 144 880 q 313 663 263 764 q 378 488 362 562 q 394 322 394 414 m 864 -231 l 851 -253 q 604 -11 699 -162 q 509 316 509 141 q 576 627 509 493 q 701 816 643 761 q 790 895 760 871 q 847 932 820 918 l 864 910 q 677 664 726 814 q 628 311 628 515 q 679 -4 628 130 q 864 -231 731 -137 z "},"*":{"ha":695,"x_min":89,"x_max":606,"o":"m 587 500 q 545 480 569 480 q 505 494 524 480 q 480 525 487 508 q 445 565 474 543 l 356 636 q 357 583 356 609 q 362 532 358 557 l 384 432 q 387 416 387 422 q 374 386 387 398 q 353 372 362 374 q 329 369 343 369 q 283 431 283 378 q 296 472 283 457 q 319 545 308 487 l 334 636 q 261 585 291 609 q 218 547 232 560 q 185 510 205 533 q 140 488 166 488 q 110 494 122 488 q 94 511 96 504 q 90 522 91 518 q 89 532 90 527 l 89 540 q 107 582 89 569 q 137 598 126 595 q 163 600 148 600 q 184 601 172 600 q 220 609 196 601 q 265 626 243 616 q 322 653 286 635 q 243 694 280 681 q 188 713 206 708 q 144 722 170 718 q 104 742 117 726 q 94 776 96 755 q 109 811 94 795 q 146 827 124 827 q 186 815 167 827 q 212 781 205 802 q 261 726 220 760 l 334 669 q 324 784 334 739 q 306 864 317 834 q 296 897 296 893 q 311 932 296 912 q 358 947 327 951 q 404 886 404 940 q 389 841 404 861 q 367 780 376 826 q 358 669 358 734 q 447 723 409 694 q 519 796 484 751 q 557 809 535 809 q 584 801 572 809 q 603 782 596 794 l 606 765 l 606 757 q 588 715 606 728 q 558 699 569 703 q 533 696 547 696 q 463 684 510 700 l 369 650 q 409 631 373 648 q 463 608 444 615 l 542 587 q 588 565 575 580 q 599 532 598 550 q 587 500 599 519 z "},"+":{"ha":784,"x_min":41,"x_max":741,"o":"m 347 678 l 139 678 l 139 762 l 347 762 l 347 915 l 436 915 l 436 762 l 630 762 l 630 678 l 436 678 l 436 542 l 741 542 l 741 455 l 436 455 l 436 -4 l 347 -4 l 347 455 l 41 455 l 41 542 l 347 542 l 347 678 z "},",":{"ha":347,"x_min":87,"x_max":281,"o":"m 124 -198 l 111 -171 q 183 -109 142 -157 q 225 -26 225 -60 q 206 -5 225 -5 l 161 -11 q 110 7 132 -11 q 87 57 87 26 q 171 140 87 140 q 253 99 223 140 q 273 54 266 79 q 281 4 281 30 q 230 -113 281 -50 q 124 -198 180 -176 z "},"-":{"ha":463,"x_min":60,"x_max":402,"o":"m 402 270 l 60 270 l 60 357 l 402 357 l 402 270 z "},".":{"ha":347,"x_min":95,"x_max":255,"o":"m 173 140 q 231 119 206 140 q 255 60 255 95 q 233 6 255 27 q 173 -20 211 -16 q 119 4 142 -20 q 95 60 95 27 q 117 116 95 92 q 173 140 140 140 z "},"/":{"ha":386,"x_min":-16,"x_max":419,"o":"m 70 -150 l -16 -150 l 333 947 l 419 947 l 70 -150 z "},":":{"ha":611,"x_min":52,"x_max":565,"o":"m 304 135 q 360 114 336 135 q 384 54 384 92 q 360 -2 384 20 q 304 -25 336 -25 q 249 -1 273 -25 q 225 54 225 22 q 247 110 225 85 q 304 135 270 135 m 304 630 q 361 608 338 630 q 384 550 384 588 q 360 493 384 515 q 304 470 336 470 q 249 494 273 470 q 225 550 225 518 q 246 605 225 580 q 304 630 268 630 m 565 263 l 52 263 l 52 352 l 565 352 l 565 263 z "},";":{"ha":386,"x_min":87,"x_max":281,"o":"m 124 -198 l 111 -171 q 183 -109 142 -157 q 225 -26 225 -60 q 206 -5 225 -5 l 161 -11 q 110 7 132 -11 q 87 57 87 26 q 171 140 87 140 q 251 100 223 140 q 281 4 281 60 q 230 -113 281 -50 q 124 -198 180 -176 m 251 560 q 228 503 251 529 q 173 477 202 477 q 117 500 140 477 q 91 560 95 523 q 115 613 91 588 q 173 636 142 636 q 226 615 202 636 q 251 560 251 593 z "},"<":{"ha":784,"x_min":37,"x_max":745,"o":"m 745 86 l 745 0 l 37 324 l 37 401 l 745 725 l 745 639 l 150 362 l 745 86 z "},"=":{"ha":784,"x_min":36,"x_max":736,"o":"m 342 537 l 36 537 l 36 643 l 342 643 l 431 643 l 736 643 l 736 537 l 431 537 l 431 100 l 736 100 l 736 -7 l 431 -7 l 342 -7 l 36 -7 l 36 100 l 342 100 l 342 537 z "},">":{"ha":784,"x_min":37,"x_max":745,"o":"m 37 86 l 631 362 l 37 639 l 37 725 l 745 401 l 745 324 l 37 0 l 37 86 z "},"?":{"ha":616,"x_min":69,"x_max":549,"o":"m 443 493 l 402 441 q 343 341 364 391 q 312 230 321 291 l 290 230 q 305 344 290 282 q 371 523 321 406 q 421 718 421 640 q 382 845 421 792 q 271 898 344 898 q 227 893 248 898 q 175 870 206 887 q 140 814 144 854 q 144 796 141 802 l 170 760 l 187 735 q 192 710 192 723 q 175 668 192 685 q 130 653 156 653 q 87 674 105 653 q 69 746 69 695 q 139 886 69 834 q 299 938 208 938 q 482 874 416 938 q 549 720 549 810 q 520 610 549 659 q 443 493 495 558 m 299 140 q 355 117 331 140 q 379 60 379 94 q 354 2 379 30 q 299 -20 334 -16 q 245 4 270 -20 q 220 60 220 31 q 243 116 220 92 q 299 140 267 140 z "},"@":{"ha":1003,"x_min":49,"x_max":956,"o":"m 579 9 q 636 -1 605 -1 q 855 140 755 -1 q 956 459 956 282 q 822 816 956 676 q 502 956 688 956 q 331 905 408 956 q 181 747 253 854 q 79 542 109 641 q 49 333 49 442 q 63 228 49 268 q 110 165 77 187 l 132 195 q 107 263 112 227 q 101 352 101 298 q 132 538 101 447 q 266 759 162 629 q 502 888 369 888 q 756 759 658 888 q 854 454 854 629 q 792 186 854 308 q 579 64 730 64 q 509 85 537 64 q 455 152 480 107 q 419 241 431 197 q 407 347 407 286 q 404 369 407 352 q 402 397 402 387 q 407 421 402 403 q 429 445 412 438 q 457 454 443 454 l 482 453 l 514 452 q 557 470 539 452 q 575 513 575 488 q 518 575 575 575 q 454 552 495 575 q 387 469 412 529 q 362 339 362 408 q 421 96 362 152 q 579 9 480 40 z "},"A":{"ha":1003,"x_min":21,"x_max":981,"o":"m 509 938 l 849 162 q 902 61 880 94 q 981 26 930 26 l 981 0 l 626 0 l 626 26 q 665 27 644 26 q 706 38 686 27 q 725 74 725 49 q 715 115 725 90 q 690 182 709 142 l 640 299 l 276 299 l 223 173 q 207 122 213 145 q 201 85 201 99 q 219 46 201 56 q 254 31 237 36 q 296 26 271 26 l 296 0 l 21 0 l 21 26 q 120 89 86 26 q 165 187 145 141 q 200 270 185 233 l 482 938 l 509 938 m 459 739 l 299 357 l 621 357 l 459 739 z "},"B":{"ha":926,"x_min":27,"x_max":827,"o":"m 161 111 l 161 809 q 132 870 161 844 q 27 893 102 893 l 27 920 l 401 920 q 676 865 572 920 q 781 685 781 810 q 734 556 781 604 q 595 483 688 508 q 761 406 695 464 q 827 253 827 348 q 729 65 827 130 q 465 0 631 0 l 27 0 l 27 26 q 132 49 104 26 q 161 111 161 72 m 303 453 l 303 125 q 322 66 303 81 q 417 51 346 51 q 601 96 535 51 q 668 257 668 141 q 582 410 668 367 q 372 453 497 453 l 303 453 m 303 508 l 417 508 q 582 552 524 508 q 639 680 639 595 q 594 801 639 757 q 475 861 554 846 l 426 861 l 382 862 l 323 859 q 303 824 303 855 l 303 508 z "},"C":{"ha":926,"x_min":46,"x_max":885,"o":"m 856 937 l 869 625 l 835 625 q 727 813 804 744 q 535 882 650 882 q 289 764 371 882 q 207 447 207 646 q 291 165 207 286 q 537 44 374 44 q 715 77 641 44 q 861 182 789 110 l 885 155 q 750 41 826 79 q 624 -8 674 4 q 524 -20 574 -20 q 180 108 314 -20 q 46 458 46 236 q 179 803 46 668 q 520 938 312 938 q 581 935 552 938 q 644 922 610 931 l 767 887 q 802 899 789 887 q 826 937 816 911 l 856 937 z "},"D":{"ha":1003,"x_min":27,"x_max":957,"o":"m 397 0 l 27 0 l 27 26 q 124 50 99 26 q 150 111 150 74 l 150 809 q 124 869 150 844 q 27 893 99 893 l 27 920 l 386 920 q 808 804 659 920 q 957 457 957 688 q 815 121 957 242 q 397 0 674 0 m 292 797 l 292 125 q 310 74 292 91 q 358 57 328 57 q 548 83 465 57 q 718 186 630 109 q 806 455 806 263 q 688 761 806 653 q 371 869 570 869 q 306 857 323 869 q 292 797 292 846 z "},"E":{"ha":849,"x_min":16,"x_max":829,"o":"m 766 0 l 16 0 l 16 26 q 113 49 87 26 q 139 111 139 72 l 139 809 q 113 869 139 844 q 16 893 87 893 l 16 920 l 754 920 l 754 721 l 724 721 q 672 823 710 784 q 565 862 634 862 l 342 862 q 298 849 316 862 q 281 809 281 835 l 281 509 l 477 509 q 603 537 557 509 q 649 643 649 565 l 678 643 l 678 318 l 649 318 q 601 422 649 394 q 477 453 553 453 l 281 453 l 281 111 q 288 74 281 89 q 317 57 296 60 l 500 57 q 674 87 610 57 q 790 235 737 116 l 829 235 l 766 0 z "},"F":{"ha":772,"x_min":16,"x_max":755,"o":"m 406 0 l 16 0 l 16 26 q 113 49 87 26 q 139 111 139 72 l 139 809 q 113 869 139 844 q 16 893 87 893 l 16 920 l 755 920 l 755 721 l 723 721 q 673 836 714 810 q 560 862 633 862 l 524 862 l 341 862 q 294 849 307 862 q 281 809 281 836 l 281 509 l 464 509 q 590 537 544 509 q 636 643 636 565 l 665 643 l 665 318 l 636 318 q 589 422 636 394 q 464 453 540 453 l 281 453 l 281 111 q 315 45 281 64 q 406 26 349 26 l 406 0 z "},"G":{"ha":1003,"x_min":37,"x_max":978,"o":"m 856 938 l 869 644 l 836 644 q 720 822 795 760 q 528 883 645 883 q 281 762 364 883 q 197 445 197 640 q 288 157 197 277 q 549 37 379 37 q 590 39 572 37 q 631 44 609 40 q 667 53 653 49 q 703 66 681 57 q 736 90 731 81 q 744 110 741 99 q 746 136 746 121 l 746 343 q 725 441 746 409 q 624 468 704 468 l 624 494 l 978 494 l 978 468 q 898 440 916 468 q 881 343 881 412 l 881 79 q 806 44 847 60 q 687 4 765 27 q 530 -20 609 -20 q 186 104 334 -20 q 37 457 37 228 q 171 801 37 663 q 514 938 304 938 q 584 933 549 938 q 680 912 619 927 q 766 893 741 896 q 826 938 809 893 l 856 938 z "},"H":{"ha":1003,"x_min":27,"x_max":976,"o":"m 292 499 l 713 499 l 713 809 q 686 868 713 842 q 590 893 659 893 l 590 920 l 976 920 l 976 893 q 882 870 906 893 q 854 809 857 847 l 854 111 q 880 52 854 77 q 976 26 907 26 l 976 0 l 590 0 l 590 26 q 686 50 659 26 q 713 111 713 74 l 713 442 l 292 442 l 292 111 q 297 79 292 91 q 323 46 302 66 q 414 26 344 26 l 414 0 l 27 0 l 27 26 q 124 50 99 26 q 150 111 150 74 l 150 809 q 124 869 150 844 q 27 893 99 893 l 27 920 l 414 920 l 414 893 q 318 869 343 893 q 292 809 292 844 l 292 499 z "},"I":{"ha":463,"x_min":25,"x_max":439,"o":"m 303 809 l 303 111 q 332 49 303 72 q 439 26 361 26 l 439 0 l 25 0 l 25 26 q 132 49 104 26 q 161 111 161 72 l 161 809 q 132 870 161 844 q 25 893 102 893 l 25 920 l 439 920 l 439 893 q 331 870 358 893 q 303 809 303 846 z "},"J":{"ha":540,"x_min":14,"x_max":522,"o":"m 386 809 l 386 275 q 321 56 386 131 q 156 -20 257 -20 q 71 -2 114 -20 q 17 61 29 15 l 14 82 q 33 128 14 106 q 81 150 52 150 q 127 134 107 150 q 144 101 147 120 q 151 61 139 87 q 187 34 163 34 q 225 61 215 34 q 240 106 236 87 q 245 157 245 125 l 245 809 q 216 870 245 844 q 109 893 186 893 l 109 920 l 522 920 l 522 893 q 416 871 442 893 q 386 809 389 849 z "},"K":{"ha":1006,"x_min":27,"x_max":985,"o":"m 294 411 l 294 111 q 329 45 294 64 q 419 26 363 26 l 419 0 l 27 0 l 27 26 q 125 49 99 26 q 152 111 152 72 l 152 809 q 117 875 152 857 q 27 893 82 893 l 27 920 l 422 920 l 422 893 q 321 870 349 893 q 294 809 294 844 l 294 482 l 530 695 q 649 846 649 804 q 626 883 649 872 q 601 890 618 886 q 573 893 585 893 l 554 893 l 554 920 l 918 920 l 918 893 q 806 865 854 893 q 695 772 759 836 l 443 524 l 663 292 l 755 188 q 882 58 845 90 q 985 26 920 26 l 985 0 l 562 0 l 562 26 q 660 61 660 26 q 640 102 660 71 q 574 192 624 135 l 465 307 l 331 441 l 294 411 z "},"L":{"ha":849,"x_min":16,"x_max":831,"o":"m 764 0 l 16 0 l 16 26 q 113 49 87 26 q 139 111 139 72 l 139 809 q 113 869 139 844 q 16 893 87 893 l 16 920 l 403 920 l 403 893 q 306 869 332 893 q 281 809 281 844 l 281 111 q 419 57 281 57 q 566 64 505 57 q 685 92 626 70 q 796 242 744 114 l 831 242 l 764 0 z "},"M":{"ha":1234,"x_min":26,"x_max":1209,"o":"m 1086 809 l 1087 111 q 1114 52 1087 77 q 1209 26 1141 26 l 1209 0 l 824 0 l 824 26 q 919 50 892 26 q 946 111 946 74 l 946 790 l 590 0 l 570 0 l 222 759 l 222 111 q 250 50 222 74 q 357 26 281 26 l 357 0 l 26 0 l 26 26 q 132 49 104 26 q 161 111 161 72 l 161 809 q 133 868 161 842 q 29 893 105 893 l 29 920 l 304 920 l 625 218 l 932 920 l 1208 920 l 1208 893 q 1112 869 1138 893 q 1086 809 1086 845 z "},"N":{"ha":1003,"x_min":16,"x_max":985,"o":"m 850 809 l 850 -20 l 829 -20 l 212 746 l 212 111 q 241 50 212 74 q 347 26 271 26 l 347 0 l 16 0 l 16 26 q 122 50 94 26 q 151 111 151 71 l 151 816 l 140 831 q 110 862 124 850 q 79 884 96 875 q 16 893 62 893 l 16 920 l 255 920 l 789 251 l 789 809 q 760 870 789 844 q 654 893 730 893 l 654 920 l 985 920 l 985 893 q 877 870 908 893 q 850 809 850 845 z "},"O":{"ha":1003,"x_min":46,"x_max":956,"o":"m 502 938 q 824 807 691 938 q 956 459 956 676 q 831 119 956 258 q 502 -20 706 -20 q 180 111 313 -20 q 46 459 46 242 q 173 804 46 669 q 502 938 299 938 m 502 888 q 297 805 353 888 q 223 641 241 721 q 205 459 205 562 q 289 142 205 255 q 502 30 373 30 q 731 167 663 30 q 799 459 799 303 q 726 767 799 645 q 502 888 654 888 z "},"P":{"ha":772,"x_min":15,"x_max":752,"o":"m 137 111 l 137 809 q 112 869 137 844 q 22 893 86 893 l 22 920 l 372 920 q 648 859 544 920 q 752 678 752 797 q 653 469 752 535 q 401 402 554 402 l 387 402 q 336 403 363 402 q 280 408 308 404 l 280 111 q 285 79 280 91 q 311 46 290 66 q 402 26 332 26 l 402 0 l 15 0 l 15 26 q 112 50 86 26 q 137 111 137 74 m 280 804 l 280 459 l 347 455 q 535 504 469 455 q 601 666 601 552 q 547 809 601 775 q 445 856 492 844 q 341 869 398 869 q 287 859 299 869 q 280 804 280 849 z "},"Q":{"ha":1003,"x_min":46,"x_max":956,"o":"m 668 832 l 416 40 q 455 31 443 32 q 484 29 467 29 l 502 30 q 731 167 663 30 q 799 459 799 303 q 791 575 799 522 q 766 678 784 628 q 668 832 737 775 m 342 79 l 595 874 l 558 883 l 502 888 q 297 805 353 888 q 223 641 241 721 q 205 459 205 562 q 213 336 205 393 q 250 205 222 278 q 342 79 278 131 m 322 16 q 122 183 198 67 q 46 459 46 298 q 173 804 46 669 q 502 938 299 938 q 532 938 518 938 q 562 936 545 938 q 589 935 582 936 q 613 930 596 935 l 628 975 l 714 975 l 690 902 q 882 734 809 852 q 956 459 956 615 q 831 119 956 258 q 502 -20 706 -20 q 401 -9 452 -20 l 364 -122 l 278 -122 l 322 16 z "},"R":{"ha":926,"x_min":16,"x_max":908,"o":"m 135 111 l 135 809 q 108 868 135 842 q 16 893 81 893 l 16 920 l 383 920 q 656 859 559 920 q 752 676 752 799 q 683 518 752 575 q 502 443 613 460 l 776 104 q 806 71 792 84 q 836 45 820 57 q 908 26 865 26 l 908 0 l 685 0 l 354 428 l 276 426 l 276 111 q 303 52 276 77 q 398 26 329 26 l 398 0 l 16 0 l 16 26 q 109 49 82 26 q 135 111 135 72 m 276 801 l 276 477 q 520 522 438 477 q 601 675 601 567 q 540 819 601 770 q 379 867 479 867 q 324 865 347 867 q 292 859 302 862 q 276 801 276 849 z "},"S":{"ha":772,"x_min":59,"x_max":681,"o":"m 100 -20 l 59 280 l 90 280 q 198 102 124 176 q 378 34 275 34 q 494 80 447 34 q 542 190 542 126 q 539 223 542 208 q 527 267 537 238 q 478 329 520 292 q 317 439 436 366 q 148 552 198 512 q 99 708 99 591 q 168 875 99 811 q 344 938 238 938 q 404 933 374 938 q 467 915 434 927 l 544 893 q 591 938 574 893 l 621 938 l 651 643 l 616 643 q 525 814 593 746 q 364 882 457 882 q 258 848 298 882 q 218 749 218 814 q 260 654 218 699 q 407 549 302 611 q 558 454 512 487 q 643 368 605 422 q 681 235 681 314 q 601 58 681 136 q 389 -20 522 -20 q 261 2 336 -20 q 172 25 187 24 q 144 16 152 25 q 131 -20 135 7 l 100 -20 z "},"T":{"ha":849,"x_min":25,"x_max":825,"o":"m 494 861 l 494 111 q 520 50 494 79 q 616 26 548 26 l 616 0 l 231 0 l 231 26 q 326 50 299 26 q 353 111 353 74 l 353 861 l 303 861 q 173 851 217 861 q 109 817 130 844 q 83 778 89 791 q 73 746 77 765 q 59 684 69 726 l 25 684 l 34 920 l 816 920 l 825 684 l 791 684 q 727 833 770 805 q 594 861 684 861 l 494 861 z "},"U":{"ha":1003,"x_min":22,"x_max":980,"o":"m 145 352 l 145 809 q 118 868 145 842 q 22 893 91 893 l 22 920 l 408 920 l 408 893 q 312 870 339 893 q 286 809 286 844 l 286 342 q 341 112 286 181 q 527 44 396 44 q 742 133 698 44 q 787 371 787 222 l 787 809 q 759 868 787 842 q 656 893 731 893 l 656 920 l 980 920 l 980 893 q 877 869 905 893 q 849 809 849 845 l 849 371 q 816 150 849 231 q 717 35 787 69 q 594 -10 646 1 q 547 -16 575 -12 q 500 -20 518 -20 q 229 67 313 -20 q 145 352 145 155 z "},"V":{"ha":1003,"x_min":27,"x_max":973,"o":"m 518 -20 l 182 733 q 114 852 144 815 q 27 893 85 893 l 27 920 l 397 920 l 397 893 q 315 882 337 893 q 293 841 293 870 q 322 757 293 825 l 357 678 l 560 223 l 757 718 l 779 779 q 786 810 782 791 q 790 834 790 829 q 759 881 790 869 q 689 893 728 893 l 689 920 l 973 920 l 973 893 q 902 867 931 893 q 834 736 877 841 l 691 382 l 537 -20 l 518 -20 z "},"W":{"ha":1312,"x_min":12,"x_max":1300,"o":"m 426 -20 l 211 583 q 177 678 192 636 q 150 742 161 720 q 109 832 129 799 q 74 873 89 865 q 48 885 60 881 q 12 893 36 890 l 12 920 l 353 920 l 353 893 l 332 892 q 296 886 309 888 q 273 881 283 883 q 262 836 262 879 q 263 824 262 831 q 270 806 265 817 l 283 770 l 478 262 l 626 654 l 582 772 l 555 827 q 516 877 538 866 q 479 890 494 887 q 441 893 464 893 l 441 920 l 811 920 l 811 893 q 764 892 782 893 q 733 886 746 891 q 704 850 704 880 q 710 815 704 835 l 718 791 l 925 258 l 1093 714 q 1118 831 1118 785 q 1109 867 1118 852 q 1074 886 1101 881 l 1025 893 l 1025 920 l 1300 920 l 1300 893 q 1214 854 1250 893 q 1184 794 1198 827 l 900 -20 l 882 -20 l 659 573 l 443 -20 l 426 -20 z "},"X":{"ha":1003,"x_min":16,"x_max":981,"o":"m 751 750 l 558 512 l 816 144 q 897 50 861 79 q 981 26 933 26 l 981 0 l 568 0 l 568 26 q 675 69 675 26 q 674 77 675 71 q 668 95 674 82 q 649 135 664 114 l 594 220 l 472 401 l 318 207 l 271 148 l 245 110 q 236 82 236 96 q 263 41 236 60 q 341 26 296 26 l 341 0 l 16 0 l 16 26 q 97 55 57 26 q 230 197 137 84 l 436 453 l 294 661 q 34 893 134 893 l 34 920 l 453 920 l 453 893 q 400 891 422 893 q 363 883 378 888 q 347 850 347 877 q 380 772 347 827 q 475 629 413 716 l 525 562 l 669 740 l 718 801 q 736 849 736 830 q 701 887 736 882 l 639 893 l 639 920 l 970 920 l 970 893 q 857 854 907 893 q 751 750 807 814 z "},"Y":{"ha":1003,"x_min":30,"x_max":976,"o":"m 354 776 l 550 482 l 740 782 q 752 801 747 791 q 762 821 757 810 q 767 847 767 832 q 763 869 767 857 q 745 885 759 881 q 714 891 731 888 q 673 893 698 893 l 673 920 l 976 920 l 976 893 q 879 850 912 883 q 824 790 846 817 q 775 721 802 762 l 579 421 l 579 111 q 608 50 579 75 q 720 26 639 26 l 720 0 l 297 0 l 297 26 q 408 49 378 26 q 438 111 438 71 l 438 408 l 266 661 l 150 829 q 30 893 95 893 l 30 920 l 419 920 l 419 893 q 376 891 396 893 q 338 883 356 888 q 321 854 321 877 q 328 819 321 834 q 354 776 334 804 z "},"Z":{"ha":849,"x_min":10,"x_max":829,"o":"m 796 0 l 10 0 l 10 16 l 619 867 l 329 867 q 155 832 210 867 q 79 681 101 797 l 44 681 l 71 920 l 804 920 l 804 902 l 201 52 l 542 52 q 712 90 659 52 q 797 245 765 127 l 829 245 l 796 0 z "},"[":{"ha":1061,"x_min":122,"x_max":950,"o":"m 416 -200 l 122 -200 l 122 936 l 416 936 l 416 901 l 307 901 q 243 886 258 901 q 228 824 228 871 l 228 -76 q 245 -148 228 -131 q 312 -165 261 -165 l 416 -165 l 416 -200 m 950 -200 l 656 -200 l 656 -165 l 760 -165 q 827 -147 810 -165 q 845 -76 845 -129 l 845 824 q 830 885 845 870 q 765 901 815 901 l 656 901 l 656 936 l 950 936 l 950 -200 z "},"\\":{"ha":386,"x_min":-115,"x_max":502,"o":"m -115 947 l -15 947 l 502 0 l 402 0 l -115 947 z "},"]":{"ha":945,"x_min":76,"x_max":714,"o":"m 552 27 q 608 42 591 27 q 624 104 624 57 l 624 529 q 611 580 624 567 q 555 594 599 594 l 235 594 q 180 582 192 594 q 167 529 167 569 l 167 104 q 181 41 167 55 q 238 27 195 27 l 552 27 m 76 -1 l 76 625 l 714 625 l 714 -1 l 76 -1 z "},"^":{"ha":777,"x_min":20,"x_max":723,"o":"m 134 -4 l 20 -4 l 319 639 l 422 639 l 723 -4 l 606 -4 l 371 529 l 134 -4 z "},"_":{"ha":695,"x_min":0,"x_max":695,"o":"m 695 -185 l 0 -185 l 0 -116 l 695 -116 l 695 -185 z "},"`":{"ha":463,"x_min":22,"x_max":337,"o":"m 146 897 l 337 704 l 282 704 l 82 831 q 46 856 60 844 q 28 876 32 869 q 22 890 24 883 q 65 942 22 942 q 107 927 81 942 q 146 897 131 916 z "},"a":{"ha":616,"x_min":69,"x_max":614,"o":"m 393 168 l 393 555 q 262 505 316 555 q 185 407 208 455 q 161 313 161 359 q 169 220 161 261 q 190 143 177 178 q 221 96 202 107 q 271 85 241 85 q 343 115 292 85 q 393 168 393 145 m 512 639 l 512 107 q 543 64 512 64 q 614 96 567 64 l 614 60 q 560 12 594 37 q 500 -14 525 -14 q 426 16 450 -14 q 401 91 401 45 q 296 17 351 47 q 197 -14 241 -14 q 102 62 140 -14 q 77 147 86 102 q 69 248 69 192 q 201 546 69 453 q 512 639 333 639 z "},"b":{"ha":616,"x_min":36,"x_max":582,"o":"m 257 457 l 257 70 q 391 122 337 70 q 467 211 445 173 q 489 293 489 248 q 471 462 489 412 q 431 526 453 512 q 379 540 408 540 q 307 510 357 540 q 257 457 257 480 m 139 -25 l 139 518 q 107 562 139 562 q 36 529 84 562 l 36 565 q 62 589 44 573 q 90 614 80 605 q 150 639 125 639 q 225 608 201 639 q 250 533 250 582 q 356 610 301 580 q 453 639 411 639 q 548 562 509 639 q 573 477 564 522 q 582 377 582 433 q 447 73 582 171 q 139 -25 312 -25 z "},"c":{"ha":573,"x_min":64,"x_max":520,"o":"m 64 7 q 231 94 191 71 q 312 157 272 117 q 366 250 351 192 q 282 410 369 280 q 162 549 195 540 q 245 559 206 549 q 352 599 285 569 q 419 681 419 629 q 319 844 419 772 l 181 941 q 394 860 308 918 q 499 745 480 801 l 518 675 l 520 654 q 461 554 520 593 q 307 497 402 515 q 402 401 338 493 q 467 282 467 309 q 351 137 467 211 q 64 7 235 64 z "},"d":{"ha":695,"x_min":36,"x_max":681,"o":"m 589 947 l 589 125 q 600 94 589 105 q 649 84 610 84 l 681 84 l 681 61 l 577 26 q 524 7 549 17 q 470 -17 499 -4 l 470 84 q 396 14 447 45 q 294 -14 343 -14 q 105 77 173 -14 q 36 292 36 168 q 117 530 36 423 q 329 636 198 636 q 413 619 376 636 q 470 580 450 601 l 470 777 q 463 847 470 834 q 419 860 455 860 l 381 860 l 381 886 l 450 902 q 477 909 463 905 q 502 918 492 913 l 589 947 m 470 161 l 470 417 q 434 545 470 498 q 327 594 402 594 q 202 517 247 594 q 156 334 156 439 q 208 125 156 198 q 348 52 261 52 q 437 87 403 52 q 470 161 470 121 z "},"e":{"ha":1081,"x_min":253,"x_max":857,"o":"m 549 236 q 626 335 593 268 q 659 464 659 402 l 659 480 l 651 515 q 618 567 651 537 q 548 594 590 594 l 507 589 q 459 555 484 585 q 439 483 439 528 q 439 466 439 472 q 443 441 439 460 q 457 396 447 421 q 493 323 467 372 q 549 236 519 273 m 801 7 q 696 -5 744 -5 q 590 20 638 -5 q 499 101 543 45 q 377 44 455 62 q 255 4 298 26 l 253 90 l 336 115 q 443 160 396 134 l 373 287 q 344 366 351 338 l 339 421 q 385 554 339 497 q 483 629 431 611 q 565 644 534 644 q 669 608 625 644 q 724 524 714 572 q 730 480 728 497 q 733 450 733 464 q 694 285 733 364 q 594 165 655 206 q 650 110 624 127 q 713 94 676 94 l 761 97 q 800 103 779 100 q 850 112 821 106 q 857 122 855 120 l 812 45 q 790 -2 792 7 l 801 7 z "},"f":{"ha":850,"x_min":29,"x_max":799,"o":"m 799 -2 l 463 -2 l 366 -2 l 29 -2 l 29 96 l 366 96 l 366 634 l 463 634 l 463 96 l 799 96 l 799 -2 z "},"g":{"ha":861,"x_min":51,"x_max":815,"o":"m 421 608 q 490 631 447 624 q 589 639 534 639 q 729 603 664 639 q 796 503 796 569 q 776 459 796 478 q 757 447 766 452 q 734 442 749 442 q 690 459 709 442 q 671 503 671 477 q 645 572 671 544 q 564 599 618 599 q 472 575 508 599 q 559 455 529 528 q 589 299 589 383 q 529 99 589 187 q 600 86 562 86 q 698 114 664 86 q 754 165 733 141 q 796 221 775 188 l 815 210 q 702 47 766 106 q 538 -11 638 -11 q 433 14 485 -11 q 329 -11 387 -11 q 167 47 233 -11 q 51 210 101 105 l 71 221 q 113 163 94 186 q 168 114 132 141 q 267 86 203 86 q 336 99 306 86 q 278 299 278 186 q 285 418 278 369 q 312 512 291 467 q 384 578 333 558 q 348 593 372 587 l 303 599 q 222 573 252 599 q 196 503 196 544 q 176 462 196 482 q 134 442 156 442 q 90 459 109 442 q 71 503 71 477 q 139 602 71 565 q 278 639 207 639 q 421 608 358 639 m 432 529 q 392 467 402 509 q 387 418 389 447 q 384 357 384 389 q 433 182 384 260 q 482 357 482 257 q 432 529 482 457 z "},"h":{"ha":856,"x_min":41,"x_max":809,"o":"m 436 946 q 644 848 548 946 q 799 577 740 750 l 786 564 q 640 762 729 704 q 439 820 550 820 q 214 770 307 820 q 56 564 121 720 l 41 580 q 197 837 82 728 q 436 946 311 946 m 796 343 l 809 331 q 655 61 751 161 q 445 -39 559 -39 q 207 68 321 -39 q 51 327 92 175 l 65 343 q 199 152 130 190 q 326 101 268 115 q 449 87 383 87 q 648 143 562 87 q 796 343 734 198 z "},"i":{"ha":877,"x_min":69,"x_max":827,"o":"m 623 89 l 739 278 l 827 278 l 668 0 l 568 0 l 69 936 l 168 936 l 623 89 z "},"j":{"ha":877,"x_min":59,"x_max":835,"o":"m 835 936 l 318 -5 l 218 -5 l 59 272 l 147 272 l 263 84 l 735 936 l 835 936 z "},"k":{"ha":983,"x_min":60,"x_max":938,"o":"m 935 644 l 938 477 l 917 477 q 876 583 905 563 q 785 603 847 603 l 716 603 l 716 74 q 735 35 716 52 q 800 17 754 17 l 800 -2 l 538 -2 l 538 17 q 603 34 583 17 q 621 74 618 49 l 621 603 l 377 603 l 377 74 q 395 34 377 51 q 459 17 413 17 l 459 -2 l 198 -2 l 198 17 q 263 35 245 17 q 281 74 281 52 l 281 603 l 231 603 q 156 595 178 603 q 120 578 130 590 q 104 554 110 565 q 94 522 99 543 l 82 477 l 60 477 l 65 644 l 935 644 z "},"l":{"ha":856,"x_min":54,"x_max":819,"o":"m 819 635 l 814 611 q 663 119 760 286 q 445 -49 567 -49 q 250 76 333 -49 q 130 316 166 201 q 79 491 94 432 q 57 601 65 550 l 54 613 q 214 203 117 303 q 449 102 311 102 q 660 222 565 102 q 819 635 755 342 z "},"m":{"ha":666,"x_min":30,"x_max":621,"o":"m 504 630 l 621 -2 l 30 -2 l 150 643 l 237 648 l 158 140 l 504 140 l 426 638 l 504 630 z "},"n":{"ha":695,"x_min":12,"x_max":593,"o":"m 475 111 l 475 409 q 457 523 475 484 q 369 563 438 563 q 291 542 327 563 q 218 482 256 520 l 218 111 q 237 42 218 65 q 306 20 256 20 l 306 0 l 12 0 l 12 20 q 81 41 60 20 q 100 111 100 64 l 100 452 q 87 539 100 527 q 12 552 74 552 l 12 570 l 218 636 l 218 525 q 276 579 247 555 q 342 620 304 603 q 431 636 379 636 q 593 413 593 636 l 587 111 q 548 -225 587 -162 q 382 -287 509 -287 q 327 -280 348 -287 q 295 -267 306 -273 q 271 -246 285 -261 q 258 -206 258 -232 q 280 -161 258 -175 q 316 -150 301 -151 q 357 -172 339 -150 l 388 -210 q 429 -237 401 -226 q 464 -193 449 -246 q 477 7 477 -135 l 477 24 l 475 71 l 475 111 z "},"o":{"ha":1003,"x_min":46,"x_max":956,"o":"m 502 938 q 824 807 691 938 q 956 459 956 676 q 831 119 956 258 q 502 -20 706 -20 q 180 111 313 -20 q 46 459 46 242 q 173 804 46 669 q 502 938 299 938 m 502 888 q 297 805 353 888 q 223 641 241 721 q 205 459 205 562 q 289 142 205 255 q 502 30 373 30 q 731 167 663 30 q 799 459 799 303 q 726 767 799 645 q 502 888 654 888 m 524 352 q 569 378 557 352 q 585 447 585 404 q 568 540 585 498 q 508 582 550 582 q 469 556 480 582 q 454 511 458 530 q 450 468 450 492 q 524 352 450 352 z "},"p":{"ha":616,"x_min":36,"x_max":582,"o":"m 257 457 l 257 70 q 390 120 337 70 q 469 221 443 170 q 495 318 495 273 q 494 409 495 371 q 480 478 492 447 q 445 525 468 509 q 379 540 422 540 q 307 510 357 540 q 257 457 257 480 m 139 -25 l 139 518 q 107 562 139 562 q 36 529 84 562 l 36 565 q 62 589 44 573 q 90 614 80 605 q 150 639 125 639 q 225 608 201 639 q 250 533 250 582 q 356 610 301 580 q 453 639 411 639 q 548 562 509 639 q 573 477 564 522 q 582 377 582 433 q 447 73 582 171 q 139 -25 312 -25 z "},"q":{"ha":695,"x_min":34,"x_max":691,"o":"m 472 -190 l 472 84 q 371 11 417 36 q 270 -14 324 -14 q 89 78 145 -14 q 34 296 34 170 q 122 535 34 433 q 347 636 211 636 q 429 626 393 636 q 500 591 464 616 l 567 634 l 579 638 q 588 630 588 634 l 590 610 l 590 -190 q 612 -259 590 -236 q 691 -282 634 -282 l 691 -302 l 357 -302 l 357 -282 q 449 -261 422 -282 q 472 -190 472 -240 m 472 195 l 472 447 l 472 470 q 459 543 472 518 q 422 581 449 569 q 379 598 396 593 q 341 603 363 603 q 199 521 246 603 q 152 341 152 439 q 199 147 152 223 q 324 70 246 70 q 429 97 398 70 q 468 136 463 124 l 474 163 q 472 195 474 186 z "},"r":{"ha":750,"x_min":60,"x_max":695,"o":"m 232 639 l 548 99 l 603 639 l 695 639 l 618 0 l 520 -1 l 207 533 l 151 -7 l 60 -7 l 140 638 l 232 639 z "},"s":{"ha":616,"x_min":69,"x_max":614,"o":"m 393 168 l 393 555 q 263 507 316 555 q 188 409 210 458 q 167 313 167 359 q 170 200 167 243 q 185 127 173 157 q 215 90 196 96 q 271 85 233 85 q 343 115 292 85 q 393 168 393 145 m 512 639 l 512 107 q 543 64 512 64 q 614 96 567 64 l 614 60 q 560 12 594 37 q 500 -14 525 -14 q 426 16 450 -14 q 401 91 401 45 q 296 17 351 47 q 197 -14 241 -14 q 102 62 140 -14 q 77 147 86 102 q 69 248 69 192 q 201 546 69 453 q 512 639 333 639 z "},"t":{"ha":816,"x_min":17,"x_max":787,"o":"m 354 636 l 452 636 l 787 636 l 787 538 l 452 538 l 452 0 l 354 0 l 354 538 l 17 538 l 17 636 l 354 636 z "},"u":{"ha":856,"x_min":60,"x_max":824,"o":"m 824 -44 q 667 368 765 246 q 454 489 569 489 q 221 388 318 489 q 60 -21 125 287 l 62 -10 q 122 243 76 97 q 251 515 167 389 q 452 640 336 640 q 668 476 573 640 q 820 -20 764 312 l 824 -44 z "},"v":{"ha":777,"x_min":47,"x_max":750,"o":"m 750 643 l 450 0 l 347 0 l 47 643 l 161 643 l 398 110 l 635 643 l 750 643 z "},"w":{"ha":1048,"x_min":61,"x_max":997,"o":"m 540 221 q 591 136 559 181 q 686 23 623 91 q 812 -45 750 -45 q 946 31 895 -45 q 997 256 997 106 q 983 380 997 324 q 925 510 970 436 q 775 635 881 585 l 770 604 q 878 481 841 552 q 915 317 915 411 q 875 165 915 223 q 766 107 835 107 q 643 184 684 107 q 580 312 603 261 q 533 427 558 363 l 502 344 q 457 260 483 303 q 391 162 432 216 q 292 107 351 107 q 183 165 223 107 q 144 317 144 222 q 178 480 144 412 q 290 604 213 548 l 283 635 q 120 490 180 588 q 61 256 61 392 q 112 32 61 110 q 246 -45 163 -45 q 405 48 308 -45 q 540 221 502 141 z "},"x":{"ha":695,"x_min":24,"x_max":665,"o":"m 373 377 l 542 119 q 601 46 572 71 q 665 20 630 20 l 665 0 l 386 0 l 386 20 q 458 50 458 20 q 452 69 454 64 l 307 273 l 207 116 q 170 40 170 60 q 225 20 170 20 l 225 0 l 24 0 l 24 20 q 73 32 51 20 q 135 106 95 45 l 283 321 l 163 503 l 121 570 q 35 603 91 603 l 35 623 l 322 623 l 322 603 q 275 593 287 603 q 262 565 262 583 q 291 505 262 552 l 346 418 l 408 505 q 439 569 439 548 q 421 594 439 587 q 383 603 404 603 l 383 623 l 603 623 l 603 603 q 535 582 567 603 q 480 527 503 562 l 373 377 z "},"y":{"ha":695,"x_min":21,"x_max":661,"o":"m 401 158 l 537 544 l 540 565 q 525 591 540 583 q 474 603 510 603 l 474 623 l 661 623 l 661 603 q 628 583 645 603 q 604 550 611 563 q 589 522 596 538 l 384 -10 q 284 -223 336 -145 q 144 -302 232 -302 q 90 -292 115 -302 q 51 -257 66 -282 l 41 -220 q 49 -194 41 -212 q 74 -168 56 -176 q 114 -161 91 -161 q 130 -162 124 -161 q 157 -171 136 -163 l 197 -185 q 256 -156 228 -191 q 306 -65 285 -121 l 333 9 q 334 35 337 24 l 99 542 q 21 603 75 595 l 21 623 l 307 623 l 307 603 q 243 593 262 603 q 225 563 225 584 q 241 509 225 543 l 401 158 z "},"z":{"ha":750,"x_min":54,"x_max":700,"o":"m 700 463 l 160 147 l 700 91 l 700 0 l 61 76 l 60 173 l 594 488 l 54 543 l 54 635 l 699 554 l 700 463 z "},"{":{"ha":666,"x_min":152,"x_max":474,"o":"m 358 168 l 358 -60 q 383 -175 358 -132 q 474 -230 411 -216 q 304 -188 349 -230 q 258 -24 258 -150 l 258 197 q 254 265 258 241 q 235 313 250 288 q 152 357 220 338 q 237 410 216 374 q 258 514 258 445 l 258 757 q 309 909 258 871 q 474 947 359 947 q 384 892 411 931 q 358 776 358 854 l 358 535 q 336 414 358 450 q 246 357 316 377 q 330 308 314 341 q 352 243 346 276 q 358 168 358 210 z "},"|":{"ha":278,"x_min":95,"x_max":183,"o":"m 95 0 l 95 947 l 183 947 l 183 0 l 95 0 z "},"}":{"ha":666,"x_min":193,"x_max":514,"o":"m 308 535 l 308 776 q 285 889 308 850 q 193 947 261 928 q 357 910 306 947 q 408 757 408 872 l 408 514 q 429 411 408 445 q 514 357 450 377 q 428 306 450 341 q 408 197 408 270 l 408 -24 q 361 -187 408 -147 q 193 -230 317 -230 q 282 -175 253 -217 q 301 -125 293 -155 q 308 -60 308 -95 l 308 168 q 329 294 308 251 q 421 357 349 337 q 331 416 356 373 q 314 465 321 436 q 308 535 308 495 z "},"~":{"ha":751,"x_min":25,"x_max":725,"o":"m 676 482 l 725 427 q 640 317 690 359 q 529 275 589 275 q 371 323 484 275 q 221 372 257 372 q 140 341 171 372 q 74 245 111 308 l 25 299 q 112 419 67 376 q 222 462 157 462 q 382 414 270 462 q 530 362 494 366 q 613 397 574 362 q 676 482 651 432 z "},"Ä":{"ha":1003,"x_min":21,"x_max":981,"o":"m 364 1023 q 318 1044 341 1023 q 296 1093 296 1066 q 316 1138 296 1117 q 364 1163 336 1159 q 413 1142 388 1163 q 433 1093 433 1122 q 413 1044 433 1066 q 364 1023 389 1023 m 640 1163 q 688 1142 665 1163 q 710 1093 710 1121 q 689 1046 710 1068 q 640 1023 668 1023 q 595 1044 616 1023 q 573 1093 573 1064 q 592 1139 573 1119 q 640 1163 611 1159 m 509 938 l 849 162 q 902 61 880 94 q 981 26 930 26 l 981 0 l 626 0 l 626 26 q 665 27 644 26 q 706 38 686 27 q 725 74 725 49 q 715 115 725 90 q 690 182 709 142 l 640 299 l 276 299 l 223 173 q 207 122 213 145 q 201 85 201 99 q 219 46 201 56 q 254 31 237 36 q 296 26 271 26 l 296 0 l 21 0 l 21 26 q 120 89 86 26 q 165 187 145 141 q 200 270 185 233 l 482 938 l 509 938 m 459 739 l 299 357 l 621 357 l 459 739 z "},"Å":{"ha":1003,"x_min":21,"x_max":981,"o":"m 503 1192 q 442 1166 472 1192 q 423 1138 429 1152 q 417 1106 417 1124 q 442 1048 417 1074 q 503 1021 468 1021 q 561 1046 534 1021 q 588 1106 588 1072 q 563 1166 588 1137 q 503 1192 534 1192 m 503 968 q 406 1008 447 968 q 364 1106 364 1048 q 404 1202 364 1159 q 503 1244 444 1244 q 600 1204 560 1244 q 640 1106 640 1164 q 600 1008 640 1048 q 503 968 560 968 m 509 938 l 849 162 q 902 61 880 94 q 981 26 930 26 l 981 0 l 626 0 l 626 26 q 665 27 644 26 q 706 38 686 27 q 725 74 725 49 q 715 115 725 90 q 690 182 709 142 l 640 299 l 276 299 l 223 173 q 207 122 213 145 q 201 85 201 99 q 219 46 201 56 q 254 31 237 36 q 296 26 271 26 l 296 0 l 21 0 l 21 26 q 120 89 86 26 q 165 187 145 141 q 200 270 185 233 l 482 938 l 509 938 m 459 739 l 299 357 l 621 357 l 459 739 z "},"Ç":{"ha":958,"x_min":85,"x_max":902,"o":"m 309 749 l 408 690 l 550 610 q 691 519 636 562 q 804 400 745 477 q 864 230 864 323 q 849 137 864 177 q 821 77 834 97 q 782 35 809 57 q 725 6 756 12 q 666 -5 694 -1 q 625 -9 638 -9 q 535 10 574 -9 q 488 50 495 29 q 477 89 480 71 q 472 121 474 107 q 482 167 472 144 q 514 196 493 185 q 555 206 537 205 q 623 172 598 206 q 648 107 648 139 q 631 57 648 81 q 715 80 680 57 q 758 132 750 102 q 766 177 766 161 q 759 222 766 200 q 734 276 752 245 q 634 354 715 307 l 441 467 q 278 578 327 542 q 188 668 230 615 q 157 717 168 696 q 132 765 145 737 q 115 857 115 811 q 135 958 115 905 q 188 1040 156 1011 q 272 1083 221 1069 q 316 1091 297 1088 q 357 1093 334 1093 q 446 1073 407 1093 q 495 1021 485 1053 q 508 963 508 988 q 506 938 508 946 q 497 917 504 930 q 465 887 489 898 l 427 877 q 358 910 383 877 q 341 943 347 927 q 336 975 336 960 q 348 1022 336 995 q 266 1002 299 1022 q 222 953 233 982 q 216 926 218 936 q 213 907 213 916 q 240 819 213 861 q 309 749 266 777 m 815 578 q 879 603 855 578 q 902 665 902 628 q 879 728 902 703 q 815 752 856 752 q 751 726 774 752 q 728 665 728 700 q 750 603 728 631 q 815 578 772 578 m 173 283 q 238 309 213 283 q 262 371 262 334 q 238 433 262 411 q 173 459 217 459 q 136 454 150 459 q 104 427 122 448 q 85 371 85 407 q 109 310 85 337 q 173 283 132 283 m 130 -1 l 774 1096 l 851 1096 l 211 -1 l 130 -1 z "},"É":{"ha":849,"x_min":16,"x_max":829,"o":"m 578 1128 l 378 1001 l 322 1001 l 514 1194 q 547 1220 532 1212 q 572 1234 562 1229 q 598 1239 583 1239 q 621 1224 608 1239 q 634 1195 634 1209 q 608 1153 634 1178 l 578 1128 m 766 0 l 16 0 l 16 26 q 113 49 87 26 q 139 111 139 72 l 139 809 q 113 869 139 844 q 16 893 87 893 l 16 920 l 754 920 l 754 721 l 724 721 q 672 823 710 784 q 565 862 634 862 l 342 862 q 298 849 316 862 q 281 809 281 835 l 281 509 l 477 509 q 603 537 557 509 q 649 643 649 565 l 678 643 l 678 318 l 649 318 q 601 422 649 394 q 477 453 553 453 l 281 453 l 281 111 q 288 74 281 89 q 317 57 296 60 l 500 57 q 674 87 610 57 q 790 235 737 116 l 829 235 l 766 0 z "},"Ñ":{"ha":1003,"x_min":16,"x_max":985,"o":"m 691 1183 l 733 1183 q 683 1080 726 1124 q 587 1036 640 1036 q 497 1059 532 1036 q 438 1091 463 1082 q 392 1101 413 1099 q 341 1082 364 1101 q 314 1036 318 1063 l 272 1036 q 325 1137 287 1098 q 426 1177 363 1177 q 485 1164 450 1177 q 544 1140 519 1151 q 595 1116 569 1129 l 613 1114 q 644 1120 628 1114 q 673 1143 660 1126 q 691 1183 685 1161 m 850 809 l 850 -20 l 829 -20 l 212 746 l 212 111 q 241 50 212 74 q 347 26 271 26 l 347 0 l 16 0 l 16 26 q 122 50 94 26 q 151 111 151 71 l 151 816 l 140 831 q 110 862 124 850 q 79 884 96 875 q 16 893 62 893 l 16 920 l 255 920 l 789 251 l 789 809 q 760 870 789 844 q 654 893 730 893 l 654 920 l 985 920 l 985 893 q 877 870 908 893 q 850 809 850 845 z "},"Ö":{"ha":1003,"x_min":46,"x_max":956,"o":"m 364 1023 q 318 1044 341 1023 q 296 1093 296 1066 q 316 1138 296 1117 q 364 1163 336 1159 q 413 1142 388 1163 q 433 1093 433 1122 q 413 1044 433 1066 q 364 1023 389 1023 m 640 1163 q 688 1142 665 1163 q 710 1093 710 1121 q 689 1046 710 1068 q 640 1023 668 1023 q 595 1044 616 1023 q 573 1093 573 1064 q 592 1139 573 1119 q 640 1163 611 1159 m 502 938 q 824 807 691 938 q 956 459 956 676 q 831 119 956 258 q 502 -20 706 -20 q 180 111 313 -20 q 46 459 46 242 q 173 804 46 669 q 502 938 299 938 m 502 888 q 297 805 353 888 q 223 641 241 721 q 205 459 205 562 q 289 142 205 255 q 502 30 373 30 q 731 167 663 30 q 799 459 799 303 q 726 767 799 645 q 502 888 654 888 z "},"Ü":{"ha":1003,"x_min":22,"x_max":980,"o":"m 364 1023 q 318 1044 341 1023 q 296 1093 296 1066 q 316 1138 296 1117 q 364 1163 336 1159 q 413 1142 388 1163 q 433 1093 433 1122 q 413 1044 433 1066 q 364 1023 389 1023 m 640 1163 q 688 1142 665 1163 q 710 1093 710 1121 q 689 1046 710 1068 q 640 1023 668 1023 q 595 1044 616 1023 q 573 1093 573 1064 q 592 1139 573 1119 q 640 1163 611 1159 m 145 352 l 145 809 q 118 868 145 842 q 22 893 91 893 l 22 920 l 408 920 l 408 893 q 312 870 339 893 q 286 809 286 844 l 286 342 q 341 112 286 181 q 527 44 396 44 q 742 133 698 44 q 787 371 787 222 l 787 809 q 759 868 787 842 q 656 893 731 893 l 656 920 l 980 920 l 980 893 q 877 869 905 893 q 849 809 849 845 l 849 371 q 816 150 849 231 q 717 35 787 69 q 594 -10 646 1 q 547 -16 575 -12 q 500 -20 518 -20 q 229 67 313 -20 q 145 352 145 155 z "},"á":{"ha":616,"x_min":51,"x_max":614,"o":"m 463 831 l 262 704 l 207 704 l 398 897 q 417 915 411 910 q 439 927 423 920 q 482 942 463 942 q 505 926 493 942 q 518 898 518 915 q 493 856 518 881 l 463 831 m 512 401 l 512 107 q 543 64 512 64 q 614 96 567 64 l 614 60 q 560 12 594 37 q 500 -14 525 -14 q 426 16 450 -14 q 401 91 401 45 q 296 17 351 47 q 197 -14 241 -14 q 93 28 135 -14 q 51 132 51 70 q 120 277 51 236 q 393 404 188 318 q 389 505 393 469 q 373 563 384 542 q 292 604 356 604 q 264 603 271 604 q 236 594 257 601 q 207 573 215 587 q 197 542 200 560 l 198 517 l 200 484 q 183 443 200 459 q 139 423 167 427 q 76 480 76 423 q 98 543 76 503 q 165 604 120 584 q 243 630 211 624 q 312 636 275 636 q 469 584 426 636 q 512 401 512 532 m 393 130 l 393 367 l 251 308 q 173 182 173 263 q 198 100 173 136 q 271 69 225 69 q 300 72 285 69 q 349 91 316 76 q 393 130 382 106 z "},"à":{"ha":616,"x_min":51,"x_max":614,"o":"m 223 897 l 416 704 l 359 704 l 160 831 q 120 860 137 845 q 100 890 102 876 q 144 942 100 942 q 185 927 160 942 q 223 897 208 916 m 512 401 l 512 107 q 543 64 512 64 q 614 96 567 64 l 614 60 q 560 12 594 37 q 500 -14 525 -14 q 426 16 450 -14 q 401 91 401 45 q 296 17 351 47 q 197 -14 241 -14 q 93 28 135 -14 q 51 132 51 70 q 120 277 51 236 q 393 404 188 318 q 389 505 393 469 q 373 563 384 542 q 292 604 356 604 q 264 603 271 604 q 236 594 257 601 q 207 573 215 587 q 197 542 200 560 l 198 517 l 200 484 q 183 443 200 459 q 139 423 167 427 q 76 480 76 423 q 98 543 76 503 q 165 604 120 584 q 243 630 211 624 q 312 636 275 636 q 469 584 426 636 q 512 401 512 532 m 393 130 l 393 367 l 251 308 q 173 182 173 263 q 198 100 173 136 q 271 69 225 69 q 300 72 285 69 q 349 91 316 76 q 393 130 382 106 z "},"â":{"ha":616,"x_min":51,"x_max":614,"o":"m 309 847 l 140 704 l 94 704 l 267 936 l 353 936 l 527 704 l 478 704 l 309 847 m 512 401 l 512 107 q 543 64 512 64 q 614 96 567 64 l 614 60 q 560 12 594 37 q 500 -14 525 -14 q 426 16 450 -14 q 401 91 401 45 q 296 17 351 47 q 197 -14 241 -14 q 93 28 135 -14 q 51 132 51 70 q 120 277 51 236 q 393 404 188 318 q 389 505 393 469 q 373 563 384 542 q 292 604 356 604 q 264 603 271 604 q 236 594 257 601 q 207 573 215 587 q 197 542 200 560 l 198 517 l 200 484 q 183 443 200 459 q 139 423 167 427 q 76 480 76 423 q 98 543 76 503 q 165 604 120 584 q 243 630 211 624 q 312 636 275 636 q 469 584 426 636 q 512 401 512 532 m 393 130 l 393 367 l 251 308 q 173 182 173 263 q 198 100 173 136 q 271 69 225 69 q 300 72 285 69 q 349 91 316 76 q 393 130 382 106 z "},"ä":{"ha":616,"x_min":51,"x_max":614,"o":"m 171 726 q 125 747 147 726 q 102 796 102 769 q 124 844 102 819 q 171 865 145 865 q 220 844 198 865 q 241 796 241 824 q 220 749 241 771 q 171 726 198 726 m 447 865 q 495 844 474 865 q 517 796 517 824 q 495 749 517 771 q 447 726 474 726 q 402 747 424 726 q 379 796 379 767 q 401 843 379 821 q 447 865 422 865 m 512 401 l 512 107 q 543 64 512 64 q 614 96 567 64 l 614 60 q 560 12 594 37 q 500 -14 525 -14 q 426 16 450 -14 q 401 91 401 45 q 296 17 351 47 q 197 -14 241 -14 q 93 28 135 -14 q 51 132 51 70 q 120 277 51 236 q 393 404 188 318 q 389 505 393 469 q 373 563 384 542 q 292 604 356 604 q 264 603 271 604 q 236 594 257 601 q 207 573 215 587 q 197 542 200 560 l 198 517 l 200 484 q 183 443 200 459 q 139 423 167 427 q 76 480 76 423 q 98 543 76 503 q 165 604 120 584 q 243 630 211 624 q 312 636 275 636 q 469 584 426 636 q 512 401 512 532 m 393 130 l 393 367 l 251 308 q 173 182 173 263 q 198 100 173 136 q 271 69 225 69 q 300 72 285 69 q 349 91 316 76 q 393 130 382 106 z "},"ã":{"ha":616,"x_min":51,"x_max":614,"o":"m 499 886 l 539 886 q 527 833 539 859 q 482 773 514 807 q 393 739 450 739 q 291 771 338 739 q 198 802 240 802 q 147 784 170 802 q 121 739 125 765 l 79 739 q 122 830 94 801 q 177 869 151 859 q 232 880 202 880 q 290 867 257 880 q 350 844 323 855 q 403 819 377 832 l 419 816 q 449 822 432 816 q 474 839 467 827 q 488 860 482 850 q 499 886 494 871 m 512 401 l 512 107 q 543 64 512 64 q 614 96 567 64 l 614 60 q 560 12 594 37 q 500 -14 525 -14 q 426 16 450 -14 q 401 91 401 45 q 296 17 351 47 q 197 -14 241 -14 q 93 28 135 -14 q 51 132 51 70 q 120 277 51 236 q 393 404 188 318 q 389 505 393 469 q 373 563 384 542 q 292 604 356 604 q 264 603 271 604 q 236 594 257 601 q 207 573 215 587 q 197 542 200 560 l 198 517 l 200 484 q 183 443 200 459 q 139 423 167 427 q 76 480 76 423 q 98 543 76 503 q 165 604 120 584 q 243 630 211 624 q 312 636 275 636 q 469 584 426 636 q 512 401 512 532 m 393 130 l 393 367 l 251 308 q 173 182 173 263 q 198 100 173 136 q 271 69 225 69 q 300 72 285 69 q 349 91 316 76 q 393 130 382 106 z "},"å":{"ha":616,"x_min":51,"x_max":614,"o":"m 309 895 q 248 869 278 895 q 230 841 236 855 q 223 809 223 827 q 243 756 223 775 q 277 730 263 736 q 309 724 291 724 q 369 749 343 724 q 394 809 394 775 q 369 869 394 840 q 309 895 343 895 m 309 671 q 213 711 256 671 q 171 809 171 751 q 211 905 171 862 q 309 947 251 947 q 407 907 367 947 q 447 809 447 867 q 407 711 447 751 q 309 671 367 671 m 512 401 l 512 107 q 543 64 512 64 q 614 96 567 64 l 614 60 q 560 12 594 37 q 500 -14 525 -14 q 426 16 450 -14 q 401 91 401 45 q 296 17 351 47 q 197 -14 241 -14 q 93 28 135 -14 q 51 132 51 70 q 120 277 51 236 q 393 404 188 318 q 389 505 393 469 q 373 563 384 542 q 292 604 356 604 q 264 603 271 604 q 236 594 257 601 q 207 573 215 587 q 197 542 200 560 l 198 517 l 200 484 q 183 443 200 459 q 139 423 167 427 q 76 480 76 423 q 98 543 76 503 q 165 604 120 584 q 243 630 211 624 q 312 636 275 636 q 469 584 426 636 q 512 401 512 532 m 393 130 l 393 367 l 251 308 q 173 182 173 263 q 198 100 173 136 q 271 69 225 69 q 300 72 285 69 q 349 91 316 76 q 393 130 382 106 z "},"ç":{"ha":616,"x_min":35,"x_max":573,"o":"m 213 -137 l 272 0 l 321 0 l 285 -90 l 324 -86 q 409 -110 376 -86 q 442 -182 442 -135 q 388 -267 442 -232 q 262 -298 332 -298 q 210 -293 237 -298 q 151 -276 182 -288 l 171 -233 q 256 -250 215 -250 q 337 -192 337 -250 q 286 -139 337 -139 l 271 -137 l 247 -140 l 223 -145 l 213 -137 m 553 218 l 573 207 q 460 44 523 102 q 294 -14 397 -14 q 129 53 185 -14 q 54 175 72 120 q 35 297 35 230 q 117 540 35 443 q 346 636 198 636 q 486 601 419 636 q 553 500 553 567 q 549 476 553 485 q 529 453 545 467 q 490 439 513 439 q 448 457 468 439 q 428 500 428 474 q 402 568 428 540 q 321 595 376 595 q 190 522 237 595 q 142 354 142 448 q 200 166 142 248 q 357 84 257 84 q 468 122 421 84 q 553 218 515 160 z "},"é":{"ha":616,"x_min":30,"x_max":585,"o":"m 463 831 l 262 704 l 207 704 l 398 897 q 417 915 411 910 q 439 927 423 920 q 482 942 463 942 q 505 926 493 942 q 518 898 518 915 q 493 856 518 881 l 463 831 m 558 383 l 126 383 q 184 173 126 268 q 352 79 242 79 q 469 121 411 79 q 563 228 527 163 l 585 220 q 474 53 552 120 q 294 -14 396 -14 q 123 56 180 -14 q 48 178 66 125 q 30 297 30 232 q 108 541 30 445 q 314 636 186 636 q 490 565 422 636 q 558 383 558 493 m 131 428 l 417 428 q 391 528 417 493 q 341 576 364 564 q 283 588 317 588 q 178 545 217 588 q 131 428 140 502 z "},"è":{"ha":616,"x_min":30,"x_max":585,"o":"m 223 897 l 416 704 l 359 704 l 160 831 q 120 860 137 845 q 100 890 102 876 q 144 942 100 942 q 185 927 160 942 q 223 897 208 916 m 558 383 l 126 383 q 184 173 126 268 q 352 79 242 79 q 469 121 411 79 q 563 228 527 163 l 585 220 q 474 53 552 120 q 294 -14 396 -14 q 123 56 180 -14 q 48 178 66 125 q 30 297 30 232 q 108 541 30 445 q 314 636 186 636 q 490 565 422 636 q 558 383 558 493 m 131 428 l 417 428 q 391 528 417 493 q 341 576 364 564 q 283 588 317 588 q 178 545 217 588 q 131 428 140 502 z "},"ê":{"ha":616,"x_min":30,"x_max":585,"o":"m 309 847 l 140 704 l 94 704 l 267 936 l 353 936 l 527 704 l 478 704 l 309 847 m 558 383 l 126 383 q 184 173 126 268 q 352 79 242 79 q 469 121 411 79 q 563 228 527 163 l 585 220 q 474 53 552 120 q 294 -14 396 -14 q 123 56 180 -14 q 48 178 66 125 q 30 297 30 232 q 108 541 30 445 q 314 636 186 636 q 490 565 422 636 q 558 383 558 493 m 131 428 l 417 428 q 391 528 417 493 q 341 576 364 564 q 283 588 317 588 q 178 545 217 588 q 131 428 140 502 z "},"ë":{"ha":616,"x_min":30,"x_max":585,"o":"m 171 726 q 125 747 147 726 q 102 796 102 769 q 124 844 102 819 q 171 865 145 865 q 220 844 198 865 q 241 796 241 824 q 220 749 241 771 q 171 726 198 726 m 447 865 q 495 844 474 865 q 517 796 517 824 q 495 749 517 771 q 447 726 474 726 q 402 747 424 726 q 379 796 379 767 q 401 843 379 821 q 447 865 422 865 m 558 383 l 126 383 q 184 173 126 268 q 352 79 242 79 q 469 121 411 79 q 563 228 527 163 l 585 220 q 474 53 552 120 q 294 -14 396 -14 q 123 56 180 -14 q 48 178 66 125 q 30 297 30 232 q 108 541 30 445 q 314 636 186 636 q 490 565 422 636 q 558 383 558 493 m 131 428 l 417 428 q 391 528 417 493 q 341 576 364 564 q 283 588 317 588 q 178 545 217 588 q 131 428 140 502 z "},"í":{"ha":386,"x_min":30,"x_max":403,"o":"m 347 831 l 147 704 l 91 704 l 283 897 q 323 927 302 916 q 367 942 347 942 q 391 926 378 942 q 403 898 403 913 q 378 856 403 881 l 347 831 m 136 111 l 136 447 q 126 530 136 512 q 89 553 117 553 l 70 552 q 30 543 60 552 l 30 563 l 255 636 l 255 111 q 276 41 255 66 q 359 20 301 20 l 359 0 l 30 0 l 30 20 q 115 41 94 20 q 136 111 136 62 z "},"ì":{"ha":386,"x_min":-15,"x_max":359,"o":"m 109 897 l 299 704 l 245 704 l 45 831 q 9 856 22 844 q -9 876 -5 869 q -15 890 -14 883 q 27 942 -15 942 q 70 927 44 942 q 109 897 94 916 m 136 111 l 136 447 q 126 530 136 512 q 89 553 117 553 l 70 552 q 30 543 60 552 l 30 563 l 255 636 l 255 111 q 276 41 255 66 q 359 20 301 20 l 359 0 l 30 0 l 30 20 q 115 41 94 20 q 136 111 136 62 z "},"î":{"ha":386,"x_min":-22,"x_max":411,"o":"m 195 847 l 25 704 l -22 704 l 151 936 l 237 936 l 411 704 l 362 704 l 195 847 m 136 111 l 136 447 q 126 530 136 512 q 89 553 117 553 l 70 552 q 30 543 60 552 l 30 563 l 255 636 l 255 111 q 276 41 255 66 q 359 20 301 20 l 359 0 l 30 0 l 30 20 q 115 41 94 20 q 136 111 136 62 z "},"ï":{"ha":386,"x_min":-12,"x_max":402,"o":"m 56 726 q 10 747 32 726 q -12 796 -12 769 q 9 844 -12 819 q 56 865 30 865 q 104 845 82 865 q 125 796 125 825 q 104 747 125 769 q 56 726 82 726 m 332 865 q 381 844 359 865 q 402 796 402 824 q 381 749 402 771 q 332 726 359 726 q 286 747 308 726 q 263 796 263 769 q 285 844 263 819 q 332 865 306 865 m 136 111 l 136 447 q 126 530 136 512 q 89 553 117 553 l 70 552 q 30 543 60 552 l 30 563 l 255 636 l 255 111 q 276 41 255 66 q 359 20 301 20 l 359 0 l 30 0 l 30 20 q 115 41 94 20 q 136 111 136 62 z "},"ñ":{"ha":695,"x_min":12,"x_max":680,"o":"m 538 886 l 578 886 q 533 785 578 831 q 432 739 489 739 q 329 771 377 739 q 237 802 278 802 q 186 784 208 802 q 160 739 163 765 l 119 739 q 171 840 131 800 q 271 880 211 880 q 343 862 296 880 q 442 819 389 845 l 458 816 q 488 822 470 816 q 513 839 505 827 q 527 860 520 850 q 538 886 533 871 m 100 111 l 100 452 q 87 539 100 527 q 12 552 74 552 l 12 570 l 218 636 l 218 525 q 276 579 247 555 q 342 620 304 603 q 431 636 379 636 q 593 413 593 636 l 593 111 q 612 43 593 66 q 680 20 631 20 l 680 0 l 388 0 l 388 20 q 455 42 436 20 q 475 111 475 65 l 475 409 q 457 523 475 484 q 369 563 438 563 q 291 542 327 563 q 218 482 256 520 l 218 111 q 237 42 218 65 q 306 20 256 20 l 306 0 l 12 0 l 12 20 q 81 41 60 20 q 100 111 100 64 z "},"ó":{"ha":695,"x_min":41,"x_max":653,"o":"m 502 831 l 302 704 l 246 704 l 438 897 q 478 927 457 916 q 520 942 502 942 q 544 926 533 942 q 557 898 557 915 q 532 856 557 880 l 502 831 m 342 636 q 565 552 477 636 q 653 331 653 467 q 568 87 653 188 q 342 -14 483 -14 q 149 56 213 -14 q 63 182 85 125 q 41 303 41 238 q 121 540 41 444 q 342 636 201 636 m 367 27 q 484 97 443 27 q 525 266 525 166 q 479 489 525 384 q 324 594 432 594 q 210 534 250 594 q 170 378 170 474 q 220 126 170 225 q 367 27 271 27 z "},"ò":{"ha":695,"x_min":41,"x_max":653,"o":"m 262 897 l 454 704 l 398 704 l 198 831 q 158 860 176 845 q 139 890 141 876 q 182 942 139 942 q 223 927 198 942 q 262 897 248 916 m 342 636 q 565 552 477 636 q 653 331 653 467 q 568 87 653 188 q 342 -14 483 -14 q 149 56 213 -14 q 63 182 85 125 q 41 303 41 238 q 121 540 41 444 q 342 636 201 636 m 367 27 q 484 97 443 27 q 525 266 525 166 q 479 489 525 384 q 324 594 432 594 q 210 534 250 594 q 170 378 170 474 q 220 126 170 225 q 367 27 271 27 z "},"ô":{"ha":695,"x_min":41,"x_max":653,"o":"m 348 847 l 180 704 l 132 704 l 306 936 l 392 936 l 565 704 l 517 704 l 348 847 m 342 636 q 565 552 477 636 q 653 331 653 467 q 568 87 653 188 q 342 -14 483 -14 q 149 56 213 -14 q 63 182 85 125 q 41 303 41 238 q 121 540 41 444 q 342 636 201 636 m 367 27 q 484 97 443 27 q 525 266 525 166 q 479 489 525 384 q 324 594 432 594 q 210 534 250 594 q 170 378 170 474 q 220 126 170 225 q 367 27 271 27 z "},"ö":{"ha":695,"x_min":41,"x_max":653,"o":"m 210 726 q 164 747 186 726 q 142 796 142 767 q 162 844 142 820 q 210 865 183 865 q 258 844 237 865 q 280 796 280 824 q 258 749 280 771 q 210 726 237 726 m 487 865 q 535 845 512 865 q 555 796 555 825 q 535 747 555 769 q 487 726 512 726 q 441 747 463 726 q 418 796 418 769 q 439 844 418 819 q 487 865 460 865 m 342 636 q 565 552 477 636 q 653 331 653 467 q 568 87 653 188 q 342 -14 483 -14 q 149 56 213 -14 q 63 182 85 125 q 41 303 41 238 q 121 540 41 444 q 342 636 201 636 m 367 27 q 484 97 443 27 q 525 266 525 166 q 479 489 525 384 q 324 594 432 594 q 210 534 250 594 q 170 378 170 474 q 220 126 170 225 q 367 27 271 27 z "},"õ":{"ha":695,"x_min":41,"x_max":653,"o":"m 538 886 l 578 886 q 533 785 578 831 q 432 739 489 739 q 329 771 377 739 q 237 802 278 802 q 186 784 208 802 q 160 739 163 765 l 119 739 q 171 840 131 800 q 271 880 211 880 q 343 862 296 880 q 442 819 389 845 l 458 816 q 488 822 470 816 q 513 839 505 827 q 527 860 520 850 q 538 886 533 871 m 342 636 q 565 552 477 636 q 653 331 653 467 q 568 87 653 188 q 342 -14 483 -14 q 149 56 213 -14 q 63 182 85 125 q 41 303 41 238 q 121 540 41 444 q 342 636 201 636 m 367 27 q 484 97 443 27 q 525 266 525 166 q 479 489 525 384 q 324 594 432 594 q 210 534 250 594 q 170 378 170 474 q 220 126 170 225 q 367 27 271 27 z "},"ú":{"ha":695,"x_min":12,"x_max":665,"o":"m 502 831 l 302 704 l 246 704 l 438 897 q 478 927 457 916 q 520 942 502 942 q 544 926 533 942 q 557 898 557 915 q 532 856 557 880 l 502 831 m 579 623 l 579 165 q 593 88 579 106 q 665 70 606 70 l 665 50 l 469 -14 l 469 106 l 441 74 q 353 5 402 31 q 262 -14 309 -14 q 140 37 183 -14 q 100 183 100 91 l 100 502 q 98 551 100 529 q 87 583 96 573 q 60 598 77 593 q 12 603 42 603 l 12 623 l 218 623 l 218 188 q 243 97 218 129 q 322 66 267 66 q 377 77 348 66 q 428 109 402 90 q 457 140 452 129 l 463 175 l 462 208 l 462 499 q 444 585 462 562 q 359 603 424 603 l 359 623 l 579 623 z "},"ù":{"ha":695,"x_min":12,"x_max":665,"o":"m 262 897 l 454 704 l 398 704 l 198 831 q 158 860 176 845 q 139 890 141 876 q 182 942 139 942 q 223 927 198 942 q 262 897 248 916 m 579 623 l 579 165 q 593 88 579 106 q 665 70 606 70 l 665 50 l 469 -14 l 469 106 l 441 74 q 353 5 402 31 q 262 -14 309 -14 q 140 37 183 -14 q 100 183 100 91 l 100 502 q 98 551 100 529 q 87 583 96 573 q 60 598 77 593 q 12 603 42 603 l 12 623 l 218 623 l 218 188 q 243 97 218 129 q 322 66 267 66 q 377 77 348 66 q 428 109 402 90 q 457 140 452 129 l 463 175 l 462 208 l 462 499 q 444 585 462 562 q 359 603 424 603 l 359 623 l 579 623 z "},"û":{"ha":695,"x_min":12,"x_max":665,"o":"m 348 847 l 180 704 l 132 704 l 306 936 l 392 936 l 565 704 l 517 704 l 348 847 m 579 623 l 579 165 q 593 88 579 106 q 665 70 606 70 l 665 50 l 469 -14 l 469 106 l 441 74 q 353 5 402 31 q 262 -14 309 -14 q 140 37 183 -14 q 100 183 100 91 l 100 502 q 98 551 100 529 q 87 583 96 573 q 60 598 77 593 q 12 603 42 603 l 12 623 l 218 623 l 218 188 q 243 97 218 129 q 322 66 267 66 q 377 77 348 66 q 428 109 402 90 q 457 140 452 129 l 463 175 l 462 208 l 462 499 q 444 585 462 562 q 359 603 424 603 l 359 623 l 579 623 z "},"ü":{"ha":695,"x_min":12,"x_max":665,"o":"m 210 726 q 164 747 186 726 q 142 796 142 767 q 162 844 142 820 q 210 865 183 865 q 258 844 237 865 q 280 796 280 824 q 258 749 280 771 q 210 726 237 726 m 487 865 q 535 845 512 865 q 555 796 555 825 q 535 747 555 769 q 487 726 512 726 q 441 747 463 726 q 418 796 418 769 q 439 844 418 819 q 487 865 460 865 m 579 623 l 579 165 q 593 88 579 106 q 665 70 606 70 l 665 50 l 469 -14 l 469 106 l 441 74 q 353 5 402 31 q 262 -14 309 -14 q 140 37 183 -14 q 100 183 100 91 l 100 502 q 98 551 100 529 q 87 583 96 573 q 60 598 77 593 q 12 603 42 603 l 12 623 l 218 623 l 218 188 q 243 97 218 129 q 322 66 267 66 q 377 77 348 66 q 428 109 402 90 q 457 140 452 129 l 463 175 l 462 208 l 462 499 q 444 585 462 562 q 359 603 424 603 l 359 623 l 579 623 z "},"°":{"ha":1792,"x_min":47,"x_max":1706,"o":"m 91 723 l 84 759 l 81 799 q 157 969 81 898 q 304 1056 232 1039 q 411 1072 377 1072 q 622 998 523 1072 q 721 826 721 925 q 711 764 721 809 q 666 693 701 719 q 568 635 630 668 q 488 591 507 601 q 655 502 577 574 q 739 373 733 429 l 746 311 l 747 296 q 699 131 747 203 q 567 22 651 59 q 394 -15 483 -15 q 291 -4 338 -15 q 176 44 243 7 q 85 134 109 81 q 55 215 62 186 q 47 268 47 243 q 122 430 47 357 q 309 529 196 503 q 155 608 193 583 q 91 723 119 634 m 358 1043 q 235 970 283 1029 q 186 836 186 911 l 187 806 q 200 759 187 800 q 294 663 213 718 q 442 608 376 608 q 495 618 455 608 q 579 696 535 628 q 623 834 623 764 q 610 903 623 861 q 525 995 596 946 q 383 1044 454 1044 l 358 1043 m 1637 785 q 1656 829 1637 819 q 1675 829 1661 834 l 1697 826 q 1656 681 1697 815 q 1601 496 1615 548 q 1587 427 1587 444 l 1589 411 l 1599 411 q 1643 447 1611 416 l 1706 514 q 1649 423 1698 472 q 1573 360 1600 374 q 1531 347 1546 346 q 1510 379 1510 351 q 1544 505 1510 404 l 1586 634 q 1559 590 1571 610 q 1534 554 1546 569 l 1487 490 q 1402 404 1461 450 q 1289 357 1343 357 q 1230 378 1259 357 q 1204 452 1204 401 q 1317 690 1204 557 q 1540 824 1429 824 q 1591 815 1569 824 q 1637 785 1614 806 m 1161 621 q 1172 673 1172 646 q 1170 696 1172 683 q 1160 727 1168 709 q 1147 756 1152 745 q 1142 779 1143 767 q 1158 807 1142 799 q 1179 816 1174 816 q 1195 805 1187 816 q 1205 776 1203 794 l 1208 747 q 1103 490 1208 635 q 900 346 997 346 l 867 348 q 827 375 845 354 q 810 434 810 396 q 835 552 810 485 q 879 661 861 618 q 917 752 896 705 q 907 764 917 761 q 845 735 874 764 l 791 679 q 859 764 809 718 q 947 810 908 810 q 971 808 962 810 q 986 794 980 806 q 933 620 993 769 q 874 426 874 472 q 901 373 874 384 q 1021 434 930 366 q 1161 621 1112 502 m 1527 797 q 1377 688 1448 786 q 1295 538 1307 590 l 1288 474 q 1298 426 1288 445 q 1326 402 1304 406 q 1469 497 1383 394 q 1584 654 1555 600 q 1612 749 1612 708 q 1551 799 1612 799 l 1527 797 m 352 517 q 208 416 261 493 q 155 248 155 339 q 160 196 155 221 q 183 130 165 171 q 266 52 202 89 q 407 16 331 16 q 439 17 424 16 q 500 31 453 19 q 593 122 547 42 q 640 285 640 201 q 613 375 640 334 q 509 467 585 416 q 366 518 433 518 l 352 517 z "},"•":{"ha":840,"x_min":44,"x_max":794,"o":"m 44 268 q 105 442 44 372 q 271 532 167 513 q 198 560 235 538 q 105 645 162 583 q 47 810 47 706 q 50 852 47 830 q 57 914 52 875 q 170 1001 61 953 q 418 1048 278 1048 q 641 997 548 1048 q 735 837 735 946 q 684 679 735 736 q 562 601 633 621 q 732 480 670 572 q 794 273 794 389 q 671 69 794 141 q 392 -4 549 -4 q 149 70 255 -4 q 44 268 44 144 m 459 664 q 548 724 482 664 q 614 837 614 784 q 557 958 614 908 q 423 1007 500 1007 q 289 969 349 1007 q 228 864 228 931 q 318 715 228 767 q 445 663 408 663 q 459 664 455 663 m 357 447 q 221 392 288 447 q 155 273 155 338 q 152 250 155 256 q 221 108 152 167 q 381 49 291 49 q 459 61 422 49 q 542 114 495 74 q 588 236 588 155 q 487 374 588 297 q 357 447 386 450 z "},"Æ":{"ha":1445,"x_min":44,"x_max":1400,"o":"m 1400 618 l 992 513 l 1129 604 l 44 605 l 44 634 l 1129 631 l 992 721 l 1400 618 z "},"±":{"ha":1389,"x_min":0,"x_max":1389,"o":"m 0 1010 l 0 1037 l 1389 1037 l 1389 1010 l 0 1010 m 0 766 l 0 795 l 1389 795 l 1389 766 l 0 766 m 0 524 l 0 552 l 1389 552 l 1389 524 l 0 524 m 0 281 l 0 308 l 1389 308 l 1389 281 l 0 281 m 0 37 l 0 65 l 1389 65 l 1389 37 l 0 37 z "},"µ":{"ha":1192,"x_min":-1,"x_max":1114,"o":"m 16 331 q 99 498 -1 359 q 319 636 198 636 q 362 630 344 636 q 391 614 382 626 q 423 549 399 601 q 575 638 475 638 q 599 636 583 638 q 639 631 615 635 q 683 611 661 631 q 729 549 705 590 q 865 628 766 628 q 962 590 920 628 q 1005 504 1005 553 q 1001 479 1005 484 l 890 75 q 896 52 886 61 q 927 46 906 46 q 982 69 953 46 q 1030 110 1011 92 q 1082 165 1049 129 q 1114 220 1114 201 q 1044 100 1114 185 q 951 11 975 16 q 903 2 927 6 q 875 -2 879 -2 q 781 22 824 -2 q 739 85 739 46 l 741 102 l 849 484 l 854 522 q 840 555 854 545 q 804 564 827 564 q 751 543 769 564 q 724 487 733 523 l 595 0 l 421 0 l 557 490 l 563 525 q 539 569 563 562 l 505 575 q 456 553 477 575 q 427 502 436 532 l 273 -1 l 101 0 l 266 499 l 270 522 q 255 542 270 535 q 220 550 242 550 q 71 443 148 550 l 16 331 z "},"Σ":{"ha":1243,"x_min":152,"x_max":1062,"o":"m 152 663 l 155 624 l 1062 624 l 1062 663 l 152 663 m 391 624 l 821 624 l 821 505 l 391 505 l 391 624 z "},"∏":{"ha":1950,"x_min":29,"x_max":1843,"o":"m 64 579 q 37 635 46 606 q 29 699 29 663 q 162 952 29 835 q 489 1069 296 1069 q 739 1011 631 1069 q 875 869 847 952 q 902 757 902 785 q 872 677 902 716 q 789 638 841 638 q 684 689 733 638 q 598 831 635 740 q 640 846 619 831 q 673 786 644 810 q 735 761 701 761 q 774 773 757 761 q 795 804 790 785 l 799 831 q 734 952 799 890 q 558 1029 669 1015 q 514 910 547 972 q 480 821 480 849 q 482 794 480 802 q 567 668 484 786 q 650 514 650 549 q 605 406 650 472 l 528 286 q 591 276 562 286 q 654 246 620 267 l 772 176 q 782 180 779 178 q 801 191 786 182 q 826 206 816 200 q 839 216 836 212 l 856 233 l 847 270 l 846 292 q 854 344 846 307 l 876 434 q 938 543 888 488 q 1054 598 987 598 l 1091 593 q 1134 560 1113 589 q 1154 492 1154 528 q 1138 424 1154 450 q 1111 381 1122 397 q 1092 358 1101 366 l 1046 321 q 1022 304 1033 311 q 989 286 1011 297 q 957 261 967 276 q 978 194 946 245 q 1030 134 1011 144 q 1069 122 1049 125 q 1147 157 1099 122 q 1198 193 1194 191 q 1230 220 1202 196 q 1224 247 1227 233 q 1222 281 1222 261 q 1224 310 1222 293 q 1231 353 1225 327 q 1242 395 1237 378 q 1263 442 1248 412 q 1318 527 1284 493 q 1424 601 1353 562 q 1330 723 1383 681 q 1240 786 1278 765 q 1157 827 1203 807 l 1043 872 q 1005 882 1025 879 q 971 888 986 886 l 973 936 q 1133 894 1061 917 q 1280 840 1205 871 q 1414 769 1355 809 q 1551 650 1472 730 q 1643 504 1630 570 q 1661 399 1656 437 q 1667 342 1666 362 q 1635 176 1667 256 q 1541 56 1602 96 q 1418 15 1480 15 q 1293 57 1346 15 q 1240 163 1240 99 l 1204 142 l 1147 99 q 1057 39 1112 72 l 1003 7 q 929 35 990 -2 q 869 185 869 72 q 746 81 811 152 q 673 11 680 10 q 606 116 650 17 q 502 238 569 212 q 390 98 482 188 q 251 7 298 7 q 225 22 235 7 q 218 54 221 34 q 314 176 218 105 q 447 278 409 247 q 503 324 484 308 q 533 391 533 357 q 486 530 533 449 q 404 645 439 610 q 367 695 369 679 q 381 741 367 709 q 442 865 394 774 q 508 1029 489 957 q 354 998 436 1029 q 239 943 277 972 q 183 892 201 915 q 147 829 165 869 q 130 741 130 790 q 146 677 130 683 q 180 667 162 671 q 202 663 198 663 q 262 696 243 663 q 296 797 281 729 l 332 786 q 328 709 332 745 q 311 623 324 674 q 256 542 298 573 q 173 515 213 515 q 64 579 105 515 m 1450 555 q 1412 528 1428 542 q 1383 497 1396 514 q 1355 436 1370 479 q 1335 363 1340 393 q 1330 294 1330 333 q 1357 148 1330 212 q 1429 84 1384 84 l 1464 89 q 1488 105 1476 92 q 1514 153 1500 119 q 1529 261 1529 187 q 1525 336 1529 302 q 1507 432 1521 371 q 1464 542 1492 493 l 1450 555 m 1012 524 q 960 486 975 512 q 941 442 946 460 q 936 398 936 423 q 941 353 936 372 l 953 302 q 1041 370 1022 348 q 1067 407 1059 392 q 1079 442 1074 423 q 1063 498 1086 467 q 1012 524 1041 529 m 1782 9 q 1760 5 1763 6 q 1705 30 1727 5 q 1683 89 1683 57 q 1698 137 1683 117 q 1730 163 1713 157 q 1768 172 1746 170 q 1821 144 1798 172 q 1843 84 1843 116 q 1828 36 1843 56 q 1782 9 1813 16 z "},"π":{"ha":799,"x_min":-66,"x_max":786,"o":"m 605 334 q 630 513 630 417 q 616 613 630 577 q 588 654 603 650 l 565 656 l 557 656 q 477 603 507 656 q 416 460 447 550 q 376 328 386 371 q 363 255 367 285 q 359 202 359 226 q 361 158 359 171 q 371 125 363 145 q 406 87 384 96 l 443 81 q 542 163 508 81 q 605 334 577 245 m 51 -232 l 250 487 l 268 544 q 278 580 273 560 q 283 606 283 600 q 253 648 283 636 q 120 573 212 656 q 40 472 27 489 q 112 591 40 499 q 231 688 183 683 l 303 695 q 379 678 352 695 l 441 630 l 479 663 q 557 688 514 688 q 583 686 567 688 q 625 680 599 685 q 731 593 675 680 q 786 394 786 505 q 760 249 786 332 q 653 104 734 166 q 458 41 572 41 q 384 52 413 41 l 333 86 l 246 -232 l 341 -232 l 333 -278 l -66 -278 l -50 -232 l 51 -232 z "},"ª":{"ha":764,"x_min":17,"x_max":718,"o":"m 499 770 q 465 569 499 626 q 369 512 431 512 q 273 569 311 512 q 238 776 238 629 q 270 932 238 865 q 369 998 302 998 q 468 931 436 998 q 490 857 482 898 q 499 770 499 816 m 34 173 l 32 151 q 94 34 32 77 q 302 -9 155 -9 q 612 144 507 -9 q 718 502 718 296 q 676 841 718 705 q 534 1025 635 977 q 367 1072 433 1072 q 303 1065 337 1072 q 232 1044 268 1058 q 107 972 155 1020 q 39 859 60 931 q 17 733 17 787 q 37 627 17 674 q 104 533 56 580 q 208 471 152 490 q 331 452 263 452 l 373 452 l 411 458 q 445 468 427 459 l 499 502 l 503 458 q 502 429 503 445 q 495 384 500 413 q 490 314 490 332 q 489 285 489 296 q 457 185 489 233 q 384 106 426 136 q 303 62 342 76 q 233 49 265 49 q 292 105 275 66 q 309 192 309 145 q 267 270 309 236 q 171 299 223 299 l 126 293 q 64 258 94 290 q 34 173 34 226 z "},"º":{"ha":861,"x_min":37,"x_max":825,"o":"m 37 524 q 142 152 37 313 q 432 -10 247 -10 q 719 152 613 -10 q 825 524 825 314 q 718 880 825 725 q 432 1036 611 1036 q 145 881 253 1036 q 37 524 37 726 m 432 39 q 286 206 307 39 q 266 520 266 373 q 311 884 266 777 q 432 991 357 991 q 556 884 527 991 q 595 696 585 777 q 605 520 605 615 q 567 183 605 327 q 432 39 529 39 z "},"Ω":{"ha":972,"x_min":39,"x_max":888,"o":"m 470 911 q 760 790 656 911 q 875 560 864 669 l 887 438 l 888 408 q 774 102 888 228 q 470 -25 659 -25 q 192 75 285 -25 q 69 256 100 176 q 39 431 39 336 q 154 774 39 638 q 470 911 270 911 m 507 35 q 675 136 614 35 q 736 377 736 237 q 669 702 736 553 q 447 851 601 851 q 280 763 338 851 q 222 538 222 675 q 296 175 222 314 q 507 35 369 35 m 495 323 q 542 349 527 323 q 557 419 557 376 q 540 513 557 472 q 480 554 523 554 q 434 529 452 554 q 417 463 417 504 q 421 406 417 429 q 436 362 426 383 q 495 323 459 323 z "},"¿":{"ha":888,"x_min":0,"x_max":774,"o":"m 393 -17 q 450 -22 419 -22 q 671 53 569 -22 q 774 202 774 129 q 747 263 774 237 q 676 297 720 290 q 603 304 631 304 q 382 230 484 304 q 280 79 280 156 q 306 17 280 42 q 393 -17 332 -7 m 746 216 l 774 216 l 774 1111 l 746 1111 l 746 216 m 752 1111 l 0 1111 l 0 963 l 752 963 l 752 1111 m 752 825 l 0 825 l 0 678 l 752 678 l 752 825 z "},"ƒ":{"ha":869,"x_min":-339,"x_max":850,"o":"m 665 1061 q 723 1039 713 1056 l 730 1003 q 696 993 711 1001 q 661 966 680 986 q 641 907 641 947 q 662 831 641 860 q 729 802 683 802 q 815 841 780 802 q 841 887 832 864 q 850 945 850 911 q 843 1005 850 972 q 787 1071 836 1038 q 674 1104 739 1104 l 644 1106 l 624 1107 q 453 1068 528 1107 q 322 952 378 1029 q 235 782 266 874 q 205 654 205 690 l 30 654 l 21 611 l 190 611 q 183 527 190 580 q 157 364 176 473 q 105 174 137 255 q 51 41 74 94 q -4 -73 29 -11 q -67 -165 -36 -135 q -128 -213 -97 -195 q -182 -231 -158 -231 q -223 -217 -205 -231 q -243 -195 -241 -202 q -241 -182 -243 -186 q -186 -161 -195 -182 q -175 -127 -177 -140 q -171 -106 -172 -114 q -191 -47 -171 -71 q -242 -22 -211 -22 q -306 -47 -282 -19 q -334 -102 -331 -75 l -339 -139 q -315 -209 -339 -178 q -273 -248 -291 -240 q -240 -261 -255 -256 q -221 -267 -226 -266 l -181 -270 q -141 -268 -153 -270 q -102 -258 -129 -266 q -17 -216 -66 -251 q 63 -151 31 -181 q 150 -60 95 -121 q 261 117 205 1 q 364 401 317 232 q 411 611 411 569 l 639 611 l 663 654 l 426 654 q 443 753 426 680 q 492 898 460 826 q 560 1016 523 971 q 650 1062 596 1062 l 665 1061 z "},"≈":{"ha":826,"x_min":109,"x_max":708,"o":"m 570 574 q 648 688 595 598 q 708 795 701 777 l 339 -112 l 318 -114 l 595 567 q 538 515 588 545 q 458 476 488 484 q 397 468 428 468 q 341 479 369 468 q 275 516 313 489 q 237 593 237 543 l 236 610 q 270 707 236 666 q 358 747 303 747 q 412 729 388 747 q 436 679 436 710 q 392 605 436 624 q 347 579 349 587 q 359 520 347 549 q 404 495 372 500 q 499 520 452 495 q 538 547 517 532 q 570 574 559 563 m 468 258 l 570 489 q 522 385 570 475 q 445 268 474 294 q 386 223 422 243 q 325 195 351 202 q 276 187 299 187 q 234 210 248 187 q 220 271 220 232 q 233 281 226 276 q 275 300 241 286 q 308 371 308 314 q 284 418 308 397 q 231 439 260 439 q 142 398 175 439 q 109 299 109 361 l 110 282 q 123 236 110 257 q 162 198 136 216 q 215 170 188 180 q 276 160 242 160 q 330 167 304 160 q 405 204 356 173 q 468 258 454 235 z "}," ":{"ha":695,"x_min":0,"x_max":0,"o":""},"Œ":{"ha":715,"x_min":106,"x_max":600,"o":"m 220 -17 q 275 -22 243 -22 q 498 52 396 -22 q 600 202 600 127 l 599 216 l 600 1111 l 573 1111 l 573 266 q 499 297 542 290 q 429 304 455 304 q 208 230 309 304 q 106 79 106 156 q 132 17 106 42 q 220 -17 158 -7 z "},"œ":{"ha":729,"x_min":186,"x_max":535,"o":"m 403 771 q 344 928 403 820 q 250 1048 286 1037 q 414 905 308 1048 q 520 695 520 761 q 452 587 520 664 l 382 500 q 439 396 378 469 q 535 312 500 322 q 473 301 503 312 q 404 263 443 291 q 336 180 364 235 q 307 65 307 126 q 328 -39 307 4 q 370 -104 349 -81 q 417 -146 391 -127 q 250 -43 313 -136 q 186 152 186 50 l 190 218 q 231 299 196 266 q 305 349 267 333 q 396 376 343 366 q 300 471 364 379 q 236 590 236 563 q 319 677 236 614 q 403 771 403 740 z "},"—":{"ha":777,"x_min":99,"x_max":684,"o":"m 371 -134 q 99 0 215 -134 q 230 -76 166 -52 q 371 -100 293 -100 q 460 -95 419 -100 q 538 -77 502 -90 q 684 0 613 -56 q 542 -100 625 -67 q 371 -134 459 -134 z "},"◊":{"ha":1049,"x_min":85,"x_max":1049,"o":"m 198 -17 q 256 -22 225 -22 q 477 53 374 -22 q 579 202 579 129 q 552 263 579 237 q 482 297 528 290 q 408 304 437 304 q 187 230 290 304 q 85 79 85 155 q 111 16 85 45 q 198 -17 140 -9 m 552 216 l 579 216 l 579 1111 l 552 1111 l 552 216 m 1049 1111 l 578 1111 l 578 963 l 1049 963 l 1049 1111 z "},"∕":{"ha":709,"x_min":41,"x_max":641,"o":"m 181 595 q 115 560 140 570 q 77 546 91 550 q 41 535 64 542 q 155 641 112 587 q 226 774 197 696 q 258 893 255 851 q 265 971 262 935 q 267 1046 267 1008 l 492 1046 l 492 168 q 494 143 492 151 q 504 119 495 135 q 538 82 512 104 q 603 61 564 61 l 623 62 l 641 -1 l 125 -1 l 145 60 l 161 59 q 231 89 200 59 q 263 168 263 120 l 263 660 q 181 595 225 625 z "},"¤":{"ha":910,"x_min":64,"x_max":836,"o":"m 343 431 q 494 548 444 505 q 578 647 544 590 q 611 761 611 704 q 610 792 611 779 q 605 822 609 806 q 596 852 601 837 q 576 902 590 867 q 510 966 562 936 q 402 996 459 996 q 321 979 359 996 q 261 920 282 962 q 241 821 241 879 l 266 824 q 346 799 308 824 q 383 734 383 774 q 339 615 383 651 q 221 580 293 580 q 110 633 155 580 q 65 755 65 686 q 84 872 65 821 q 140 962 102 923 q 213 1018 177 1001 q 316 1052 250 1036 q 450 1068 383 1068 q 561 1055 510 1068 q 674 1008 611 1042 q 774 936 737 973 q 823 850 810 898 q 836 766 836 801 q 820 676 836 716 q 770 585 805 635 q 660 494 735 535 l 525 418 q 407 337 463 384 l 299 248 q 442 278 378 278 q 478 276 458 278 q 525 268 498 273 q 600 235 552 263 q 675 206 649 206 q 775 246 730 206 q 827 349 820 287 q 836 272 836 309 q 823 169 836 237 q 798 79 810 101 q 777 46 786 57 q 752 22 769 35 q 719 1 736 9 q 684 -10 703 -6 q 654 -15 666 -14 q 611 -16 641 -16 l 575 -16 q 528 -12 549 -16 q 483 2 508 -9 l 392 51 l 322 86 q 243 102 293 102 l 176 97 q 74 15 134 97 l 66 65 l 64 109 q 94 224 64 180 q 155 297 124 268 q 253 368 187 326 q 343 431 318 409 z "},"‹":{"ha":847,"x_min":61,"x_max":767,"o":"m 281 981 q 257 957 263 973 l 245 915 q 323 905 297 915 q 348 856 348 896 q 304 762 348 800 q 201 725 261 725 l 156 729 q 94 776 125 735 q 61 877 61 822 q 99 966 61 932 q 205 1031 137 1001 q 356 1061 273 1061 q 402 1061 378 1061 q 447 1054 423 1057 q 527 1038 472 1052 q 619 1004 583 1023 q 711 938 655 985 q 767 804 767 892 q 716 624 767 698 q 569 528 664 550 q 713 442 658 509 q 767 280 767 374 q 730 137 767 192 q 644 59 693 82 q 570 26 595 36 q 509 6 545 15 q 448 -6 473 -2 q 392 -9 423 -9 q 253 16 328 -9 q 135 65 177 41 q 77 134 94 91 q 69 172 72 151 q 65 207 65 193 q 67 231 65 218 q 74 260 69 243 q 111 308 80 276 q 206 339 142 339 q 286 318 250 339 q 329 267 322 297 l 334 230 q 316 160 334 191 q 258 114 297 130 q 381 65 318 65 q 490 115 452 65 q 535 206 528 166 l 540 299 q 481 440 540 384 q 321 495 422 495 l 283 494 l 283 554 q 455 617 382 554 q 529 796 529 680 q 520 895 529 861 q 472 966 514 930 q 372 1003 431 1003 q 281 981 326 1003 z "},"›":{"ha":902,"x_min":44,"x_max":844,"o":"m 574 650 q 618 691 599 671 q 660 740 638 710 q 708 836 681 770 l 708 314 l 829 314 l 829 270 l 708 270 l 708 145 q 716 112 708 125 l 747 82 q 786 59 767 66 l 826 52 l 844 0 l 302 0 l 327 52 q 372 58 354 52 q 407 79 389 64 q 433 109 426 95 q 443 145 441 122 l 443 267 l 44 267 q 96 338 70 299 q 152 422 122 376 q 233 574 181 469 q 319 782 285 679 q 379 1039 353 886 l 724 1039 q 606 912 669 982 q 483 763 543 841 q 382 626 423 685 q 298 500 342 568 q 243 414 253 432 l 185 311 l 443 311 l 443 578 q 484 593 472 588 q 510 606 495 598 q 542 626 524 614 q 574 650 560 638 z "},"":{"ha":764,"x_min":36,"x_max":716,"o":"m 57 495 l 121 1036 q 183 1004 156 1016 q 246 980 210 992 q 379 962 306 962 q 514 973 469 962 q 595 1000 559 985 q 668 1036 630 1015 q 585 872 646 932 q 449 799 524 817 q 344 784 372 784 q 265 797 297 784 q 213 821 233 810 q 170 851 193 832 l 127 610 q 323 671 227 671 q 442 661 351 671 q 625 562 533 650 q 716 339 716 473 q 590 96 716 192 q 302 0 464 0 q 147 32 216 0 q 57 120 77 64 q 36 220 36 176 q 61 316 36 276 q 114 361 85 357 q 163 366 142 366 q 263 322 231 366 q 299 233 299 280 q 297 195 299 208 q 282 160 294 181 q 255 134 270 140 l 220 127 q 196 130 202 127 q 243 79 221 96 q 298 64 267 64 q 445 145 403 64 q 487 343 487 227 q 468 514 487 450 q 399 604 449 577 q 296 631 349 631 q 221 624 255 631 q 150 595 187 616 q 57 495 82 564 z "},"":{"ha":771,"x_min":35,"x_max":720,"o":"m 247 291 q 281 442 247 378 q 382 507 314 507 q 467 457 448 507 q 494 368 487 408 q 500 282 500 327 q 470 129 500 193 q 373 65 441 65 q 276 132 308 65 q 247 291 247 200 m 720 872 q 656 997 720 952 q 443 1044 595 1044 q 139 897 242 1044 q 35 552 35 750 q 87 183 35 291 q 225 36 139 76 q 379 -5 311 -5 q 507 19 441 -5 q 625 89 574 42 q 695 197 670 134 q 716 311 716 261 q 658 470 716 414 q 545 547 600 525 q 426 568 490 568 q 392 567 409 568 q 353 562 374 565 q 324 556 331 558 q 306 549 318 554 q 281 536 294 544 q 255 518 268 528 l 246 560 l 243 610 q 243 650 243 633 q 248 699 243 666 l 258 776 q 291 860 262 812 q 382 950 321 908 q 508 991 444 991 q 447 935 472 977 q 428 851 428 897 q 470 771 428 802 q 570 739 512 739 l 618 742 q 678 775 651 749 q 712 822 704 801 q 720 872 720 842 z "},"‡":{"ha":993,"x_min":30,"x_max":945,"o":"m 84 716 l 30 716 l 72 1028 l 125 1028 q 172 971 152 990 q 231 953 196 953 q 326 996 267 953 q 458 1039 384 1039 q 622 983 523 1039 q 766 927 721 927 q 861 954 822 927 q 945 1039 900 981 q 852 883 898 970 q 759 691 805 796 q 660 426 714 587 q 594 208 605 266 q 576 96 583 151 q 564 -5 569 41 l 228 -5 l 377 222 q 434 308 408 270 q 502 406 459 346 l 608 560 q 689 686 644 611 l 752 795 q 716 795 733 795 q 680 791 699 795 q 656 789 669 791 q 624 781 644 786 q 587 766 604 775 q 535 742 570 757 q 464 728 499 728 q 344 782 421 728 q 220 836 267 836 q 147 800 191 836 q 84 716 104 764 z "},"·":{"ha":1048,"x_min":75,"x_max":978,"o":"m 379 291 q 407 309 397 306 l 433 316 l 454 316 l 469 317 q 502 296 488 321 q 515 233 515 272 q 472 174 515 201 q 428 91 428 147 q 449 16 428 32 q 525 -1 470 -1 q 593 16 570 -1 q 618 91 618 32 q 577 173 618 147 q 535 233 535 198 q 555 286 535 267 q 580 317 575 304 q 603 328 588 327 q 661 299 633 328 q 690 253 690 273 l 685 222 l 679 190 q 685 159 679 172 q 712 127 691 146 q 748 100 733 107 q 779 91 764 92 q 811 100 799 91 q 831 116 824 110 q 844 129 839 122 q 860 145 850 135 q 872 160 870 156 q 879 173 875 165 q 882 196 882 182 q 856 253 882 225 q 833 273 845 263 q 808 288 821 282 q 779 294 795 294 l 751 291 q 725 286 736 286 q 704 290 713 286 q 685 305 695 294 q 666 331 675 316 l 663 358 l 663 374 q 660 397 663 382 q 678 429 655 414 q 742 443 701 443 q 802 398 777 443 q 885 356 830 356 q 960 378 945 356 q 978 453 978 401 q 960 522 978 497 q 885 548 942 548 q 802 505 831 548 q 742 464 777 464 q 696 478 710 464 q 673 500 683 492 q 657 512 663 509 q 650 532 651 515 q 678 590 650 562 q 726 619 705 619 l 755 614 l 787 608 q 815 613 802 608 q 857 648 829 619 q 886 709 886 676 q 878 738 886 725 q 852 768 870 751 q 825 793 834 785 q 807 806 816 801 q 777 812 799 810 q 721 784 749 812 q 688 742 694 756 l 681 713 l 686 684 l 690 655 l 686 635 q 662 603 685 628 q 604 579 639 579 q 582 590 589 579 l 549 628 q 538 674 538 641 q 580 734 538 706 q 625 815 625 759 q 601 892 625 874 q 528 910 578 910 q 458 890 482 910 q 434 815 434 874 q 476 734 434 761 q 518 674 518 708 q 499 620 518 638 q 474 591 479 601 q 450 579 468 580 q 392 605 418 579 q 362 656 366 631 l 368 686 l 373 715 q 368 746 373 734 q 335 786 363 757 q 276 815 307 815 q 243 804 258 815 q 207 776 227 796 l 180 745 q 171 713 171 733 q 177 680 171 694 l 205 646 q 237 622 223 629 q 271 613 251 615 l 297 616 l 327 623 q 346 618 337 623 q 367 603 354 616 q 384 578 379 589 q 391 548 388 567 q 393 509 391 520 q 375 477 397 490 q 309 464 353 464 q 248 507 278 464 q 168 552 223 552 q 92 529 110 552 q 75 454 75 507 q 92 384 75 409 q 168 359 110 359 q 250 401 223 359 q 309 443 276 443 q 364 419 339 443 l 396 393 q 403 373 402 392 q 377 317 403 343 q 324 287 351 291 l 296 293 l 267 298 q 239 294 248 298 q 219 281 230 290 q 188 253 208 273 q 165 200 168 232 q 175 167 165 183 l 206 132 l 238 102 q 272 95 253 95 q 300 100 291 95 q 316 109 309 105 q 339 130 322 114 q 362 163 356 147 q 371 195 371 180 l 366 221 q 361 253 361 240 q 365 272 361 263 q 379 291 369 281 m 525 354 q 447 384 477 354 q 419 459 419 416 q 445 535 419 503 q 525 567 474 567 q 602 537 573 567 q 631 459 631 507 q 604 385 631 416 q 525 354 577 354 z "},"„":{"ha":701,"x_min":69,"x_max":608,"o":"m 192 411 l 255 406 q 498 488 388 406 q 608 654 608 570 q 579 719 608 693 q 503 757 550 746 q 422 765 455 765 q 180 682 291 765 q 69 517 69 599 q 96 451 69 478 q 192 411 124 424 m 474 644 q 484 590 484 620 q 436 490 484 532 q 323 449 387 449 q 261 463 288 449 q 212 512 233 477 q 190 585 190 548 q 240 678 190 639 q 354 718 291 718 q 426 700 396 718 q 474 644 457 683 z "},"‰":{"ha":981,"x_min":85,"x_max":908,"o":"m 655 988 q 643 1010 650 1001 q 620 1040 636 1020 q 595 1075 603 1061 q 579 1111 587 1089 l 552 1111 l 552 266 q 479 297 520 290 q 408 304 437 304 q 187 230 290 304 q 85 79 85 155 q 111 16 85 45 q 182 -15 139 -7 q 255 -22 226 -22 q 477 52 374 -22 q 579 202 579 127 l 578 216 l 579 917 l 583 906 q 618 852 594 880 q 668 801 641 824 q 740 739 694 779 q 806 684 786 699 q 861 538 861 635 l 861 507 l 844 428 q 710 323 831 367 q 856 416 819 344 q 901 518 893 488 q 908 578 908 548 l 908 595 q 906 621 908 604 l 885 711 q 769 873 869 784 q 655 988 669 962 z "},"Â":{"ha":764,"x_min":173,"x_max":644,"o":"m 508 574 q 587 689 533 598 q 644 795 641 781 l 276 -112 l 256 -114 l 533 567 q 461 506 525 545 q 351 467 397 467 q 337 468 342 468 q 278 480 307 470 q 212 517 250 490 q 175 593 175 543 l 173 610 q 207 707 173 666 q 296 747 241 747 q 349 728 326 747 q 373 679 373 711 q 330 605 373 624 q 285 579 287 587 q 297 520 285 549 q 342 495 309 500 q 422 514 389 495 q 475 547 454 532 q 508 574 497 562 z "},"Ê":{"ha":577,"x_min":51,"x_max":515,"o":"m 248 669 q 231 826 231 749 q 255 987 231 925 q 336 1073 278 1049 q 388 996 358 1073 q 418 836 418 920 q 417 798 418 815 q 411 762 416 781 q 390 701 404 728 q 368 660 376 674 q 348 629 361 646 l 294 565 l 318 436 q 356 441 334 441 q 468 386 423 441 q 515 266 515 334 q 481 153 515 195 q 392 76 447 111 l 416 -30 l 426 -109 q 411 -180 426 -146 q 365 -231 399 -212 q 286 -250 331 -250 q 210 -231 238 -250 q 171 -192 181 -213 q 158 -160 161 -171 q 152 -130 155 -148 q 156 -103 152 -114 q 170 -76 160 -92 q 206 -50 187 -55 l 236 -46 q 281 -66 262 -46 q 298 -119 298 -90 q 281 -169 298 -148 q 223 -190 265 -190 q 241 -215 223 -206 q 285 -225 258 -225 q 344 -212 316 -225 q 381 -182 373 -200 q 394 -144 389 -165 q 399 -115 398 -122 q 401 -101 401 -107 q 389 -16 401 -69 l 371 66 l 339 62 l 306 61 q 135 120 203 61 q 60 236 67 178 l 51 309 l 51 332 q 77 459 51 413 q 248 669 104 504 m 361 960 q 293 922 313 960 q 266 850 273 883 q 260 779 260 816 q 272 686 260 729 q 352 781 331 735 q 382 855 373 826 q 391 906 391 883 q 361 960 391 960 m 273 550 q 155 429 203 484 q 106 278 106 373 q 107 242 106 253 q 118 193 109 231 q 185 119 127 156 q 309 82 243 82 q 366 90 337 82 l 316 349 q 260 318 276 339 q 240 284 245 297 q 235 250 235 271 q 248 195 235 217 q 279 167 262 172 q 299 158 296 162 q 297 147 302 155 q 287 145 291 145 l 262 152 q 218 196 246 157 q 190 281 190 235 l 193 304 q 226 384 205 358 q 294 429 248 411 l 273 550 m 337 354 l 386 97 q 441 150 423 117 q 459 222 459 183 q 427 316 459 278 q 337 354 394 354 z "},"Á":{"ha":1049,"x_min":92,"x_max":978,"o":"m 183 654 q 116 777 116 701 q 208 958 116 870 q 413 1046 301 1046 q 671 966 553 1046 q 789 725 789 886 q 780 640 789 686 q 744 513 771 593 q 647 362 718 433 q 526 251 577 291 q 394 162 475 212 q 222 66 313 112 l 125 16 l 109 10 l 97 17 q 102 36 92 26 l 150 69 l 242 127 q 301 172 277 153 q 386 240 324 190 q 520 410 448 291 q 600 601 591 529 q 608 714 608 673 q 557 925 608 845 q 406 1005 507 1005 q 306 986 357 1005 q 230 941 256 968 q 205 880 205 913 q 216 837 205 854 l 260 849 l 306 856 q 372 830 347 856 q 398 735 398 805 q 358 660 398 690 q 263 630 317 630 q 222 636 240 630 q 183 654 201 640 m 931 797 l 910 795 q 863 817 882 795 q 844 869 844 839 q 854 908 844 890 q 887 933 866 925 q 917 942 908 942 q 958 922 941 942 q 978 865 975 901 q 931 797 978 812 m 926 514 l 906 509 q 864 530 881 509 q 847 582 847 550 q 857 622 847 606 q 880 643 866 638 q 903 650 895 648 q 915 651 912 651 q 956 632 940 651 q 973 582 973 613 q 926 514 973 533 z "},"Ë":{"ha":1389,"x_min":112,"x_max":807,"o":"m 358 915 q 386 892 358 892 l 411 893 l 438 897 q 467 840 467 883 q 416 806 463 806 l 372 811 q 331 844 348 816 q 308 901 313 871 l 304 938 q 353 1034 304 1002 q 428 1079 402 1067 q 483 1094 454 1091 l 545 1102 q 728 1016 649 1102 q 807 819 807 930 l 806 796 q 725 616 796 690 q 554 542 654 542 l 505 544 q 422 582 474 549 l 414 503 l 316 502 l 343 538 l 364 570 l 388 616 l 409 663 q 454 598 424 621 q 533 574 484 574 q 628 639 595 574 q 659 795 659 709 q 626 986 659 910 q 515 1067 596 1067 q 402 1027 447 1067 q 358 915 358 987 m 358 89 q 386 112 358 112 l 411 110 q 438 107 431 110 q 467 161 467 119 q 416 198 467 198 q 378 194 397 198 q 349 182 359 190 q 326 154 339 175 q 308 102 313 134 l 304 65 q 367 -40 304 2 q 483 -90 429 -82 l 545 -97 q 728 -11 649 -97 q 807 186 807 75 l 806 208 q 726 388 797 313 q 554 463 654 463 l 505 458 q 422 422 475 458 l 414 502 l 316 503 l 343 465 l 364 432 l 388 386 l 409 342 q 455 407 424 383 q 533 431 487 431 q 628 364 594 431 q 659 210 659 296 q 628 17 659 96 q 515 -62 596 -62 q 403 -22 447 -62 q 358 89 358 15 m 235 1111 l 263 1111 l 263 -97 l 233 -97 l 235 1111 m 112 1111 l 185 1111 l 185 -97 l 114 -97 l 112 1111 z "},"Í":{"ha":618,"x_min":96,"x_max":529,"o":"m 248 1224 l 217 1224 l 217 875 l 96 832 l 96 573 l 218 616 l 218 382 l 96 337 l 96 101 l 218 147 l 218 -109 l 248 -109 l 248 158 l 379 207 l 379 -109 l 413 -109 l 413 217 l 529 260 l 529 495 l 413 452 l 413 688 l 529 729 l 529 991 l 413 948 l 413 1224 l 381 1224 l 381 936 l 248 887 l 248 1224 m 248 629 l 381 675 l 381 441 l 248 393 l 248 629 z "},"Ï":{"ha":1299,"x_min":195,"x_max":1042,"o":"m 625 799 q 365 741 464 799 q 195 520 266 683 q 323 798 195 686 q 625 910 452 910 q 918 796 795 910 q 1042 520 1042 681 q 876 739 975 680 q 625 799 777 799 m 625 493 q 691 518 666 493 q 715 583 715 544 q 691 646 715 619 q 625 674 668 674 q 558 648 584 674 q 535 583 535 621 q 553 526 535 545 q 587 500 570 507 q 625 493 603 493 z "},"Ó":{"ha":715,"x_min":47,"x_max":590,"o":"m 419 291 l 482 294 q 555 258 555 294 q 438 135 555 210 q 257 50 321 60 l 181 44 l 156 44 q 72 81 72 44 q 190 203 72 131 q 419 291 308 276 m 563 1111 l 563 299 q 486 339 534 331 q 402 348 438 348 q 186 286 270 348 q 75 183 102 225 q 47 100 47 142 q 76 34 47 62 q 150 -2 105 7 q 232 -11 196 -11 q 477 74 366 -11 q 588 243 588 158 l 590 1111 l 563 1111 z "},"Ú":{"ha":1445,"x_min":41,"x_max":1401,"o":"m 41 618 l 450 721 l 312 631 l 1401 634 l 1401 605 l 312 604 l 450 513 l 41 618 z "},"Ù":{"ha":981,"x_min":99,"x_max":935,"o":"m 598 1097 l 593 1081 l 593 1111 l 565 1111 l 565 266 q 492 297 534 290 q 422 304 450 304 q 201 230 303 304 q 99 79 99 155 q 125 16 99 45 q 196 -15 152 -7 q 268 -22 240 -22 q 490 52 388 -22 q 593 202 593 127 l 591 216 l 593 691 l 598 680 q 625 641 604 663 q 676 594 645 619 l 800 503 q 824 480 817 488 q 844 455 831 473 q 757 382 816 402 q 856 433 812 393 q 863 413 860 424 q 867 394 866 402 l 870 349 l 870 307 q 838 197 862 238 q 757 136 814 156 q 852 185 815 147 q 904 253 890 222 q 922 293 918 283 q 930 323 925 303 l 933 366 q 925 426 933 394 l 905 500 l 910 513 l 917 527 q 930 572 926 552 q 935 613 935 591 q 932 653 935 635 q 921 696 930 670 q 907 739 912 723 q 890 784 901 755 q 767 901 880 812 q 651 1000 655 990 q 632 1031 648 1010 q 610 1066 616 1053 q 598 1097 604 1079 m 593 1081 l 593 1074 l 593 1081 m 598 851 l 593 835 l 593 938 l 598 926 q 625 887 604 908 q 676 840 645 865 l 800 749 q 851 688 840 715 q 867 642 862 661 q 872 601 872 623 l 871 580 l 870 564 l 653 751 q 631 786 646 765 q 610 820 616 807 q 598 851 604 834 m 593 835 l 593 829 l 593 835 z "},"ı":{"ha":1194,"x_min":0,"x_max":1194,"o":"m 344 -17 q 402 -22 371 -22 q 623 53 520 -22 q 725 202 725 129 q 698 263 725 237 q 627 297 671 290 q 554 304 583 304 q 333 230 436 304 q 231 79 231 156 q 257 17 231 42 q 344 -17 283 -7 m 698 216 l 725 216 l 725 1111 l 698 1111 l 698 216 m 1194 1111 l 0 1111 l 0 963 l 1194 963 l 1194 1111 z "},"ˆ":{"ha":472,"x_min":100,"x_max":371,"o":"m 136 1089 l 100 1089 l 100 171 l 334 268 l 334 -151 l 371 -151 l 371 767 l 136 671 l 136 1089 m 139 524 l 334 611 l 334 411 l 139 323 l 139 524 z "},"˜":{"ha":869,"x_min":0,"x_max":725,"o":"m 344 -17 q 402 -22 371 -22 q 623 53 520 -22 q 725 202 725 129 q 698 263 725 237 q 627 297 671 290 q 554 304 583 304 q 333 230 436 304 q 231 79 231 156 q 257 17 231 42 q 344 -17 283 -7 m 698 216 l 725 216 l 725 1111 l 698 1111 l 698 216 m 725 1111 l 0 1111 l 0 963 l 725 963 l 725 1111 z "},"¯":{"ha":1049,"x_min":85,"x_max":1049,"o":"m 198 -17 q 256 -22 225 -22 q 477 53 374 -22 q 579 202 579 129 q 552 263 579 237 q 482 297 528 290 q 408 304 437 304 q 187 230 290 304 q 85 79 85 155 q 111 16 85 45 q 198 -17 140 -9 m 552 216 l 579 216 l 579 1111 l 552 1111 l 552 216 m 1049 1111 l 578 1111 l 578 963 l 1049 963 l 1049 1111 m 1049 825 l 578 825 l 578 678 l 1049 678 l 1049 825 z "},"˘":{"ha":1243,"x_min":0,"x_max":1242,"o":"m 393 -17 q 450 -22 419 -22 q 671 53 569 -22 q 774 202 774 129 q 747 263 774 237 q 676 297 720 290 q 603 304 631 304 q 382 230 484 304 q 280 79 280 156 q 306 17 280 42 q 393 -17 332 -7 m 746 216 l 774 216 l 774 1111 l 746 1111 l 746 216 m 1242 1111 l 0 1111 l 0 963 l 1242 963 l 1242 1111 m 1242 825 l 0 825 l 0 678 l 1242 678 l 1242 825 z "},"˙":{"ha":1243,"x_min":152,"x_max":1062,"o":"m 152 545 l 155 585 l 1062 585 l 1062 545 l 152 545 m 821 585 l 391 585 l 391 703 l 821 703 l 821 585 z "}}}
